<svg width="50" height="50" viewBox="0 0 50 50" fill="none" xmlns="http://www.w3.org/2000/svg">
            <path d="M 22.674 24.759 L 22.342 24.759 L 22.107 24.995 L 17.7 29.4 L 17.7 25.562 L 17.7 24.759 L 16.899 24.759 L 13.048 24.759 C 12.24 24.759 11.465 24.438 10.893 23.867 C 10.321 23.294 10 22.52 10 21.71 L 10 14.01 C 10 13.202 10.321 12.427 10.893 11.855 C 11.465 11.283 12.24 10.962 13.048 10.962 L 26.524 10.962 C 27.333 10.962 28.107 11.283 28.68 11.855 C 29.252 12.427 29.572 13.202 29.572 14.01 L 29.572 21.71 C 29.572 22.52 29.252 23.294 28.68 23.867 C 28.107 24.438 27.333 24.759 26.524 24.759 L 22.674 24.759 Z" fill="white" stroke="white"></path>
            <path d="M 34.224 17.861 L 34.224 21.71 C 34.224 23.753 33.413 25.712 31.969 27.155 C 30.525 28.6 28.566 29.411 26.524 29.411 L 24.269 29.411 L 20.868 32.813 C 21.407 33.1 22.021 33.262 22.674 33.262 L 26.524 33.262 L 32.3 39.037 L 32.3 33.262 L 36.15 33.262 C 37.172 33.262 38.151 32.855 38.872 32.134 C 39.594 31.412 40 30.434 40 29.411 L 40 21.71 C 40 20.69 39.594 19.71 38.872 18.989 C 38.151 18.266 37.172 17.861 36.15 17.861 L 34.224 17.861 Z" fill="white" fill-opacity="0.6"></path>
          </svg>