<svg class="" width="65" height="65" viewBox="0 0 75 76" fill="none" xmlns="http://www.w3.org/2000/svg"><path d="M26.3026 15.7351C26.2301 15.6261 26.1455 15.5293 26.0489 15.4445C25.9401 15.3598 25.8314 15.2993 25.6985 15.2508C25.5656 15.2024 25.4327 15.1782 25.2877 15.1782C25.0219 15.1782 24.8045 15.2266 24.6232 15.3356C24.442 15.4324 24.297 15.5777 24.1762 15.7472C24.0675 15.9167 23.9829 16.1104 23.9346 16.3283C23.8863 16.5462 23.8621 16.7641 23.8621 17.0062C23.8621 17.2241 23.8863 17.442 23.9346 17.6599C23.9829 17.8657 24.0675 18.0594 24.1762 18.2289C24.285 18.3984 24.442 18.5316 24.6232 18.6284C24.8045 18.7253 25.0219 18.7858 25.2877 18.7858C25.6381 18.7858 25.916 18.6768 26.1214 18.4589C26.3268 18.241 26.4476 17.9505 26.4838 17.5994H27.6074C27.5832 17.9263 27.4987 18.2289 27.3779 18.4952C27.257 18.7616 27.0879 18.9916 26.8946 19.1732C26.6892 19.3548 26.4596 19.5 26.1818 19.5969C25.916 19.6937 25.6139 19.7422 25.2877 19.7422C24.889 19.7422 24.5145 19.6695 24.2004 19.5364C23.8742 19.3911 23.6084 19.1974 23.3788 18.9553C23.1614 18.7131 22.9922 18.4226 22.8714 18.0836C22.7506 17.7568 22.6902 17.3936 22.6902 17.0062C22.6902 16.6067 22.7506 16.2435 22.8714 15.9046C22.9922 15.5656 23.1614 15.275 23.3788 15.0208C23.5963 14.7666 23.8742 14.5729 24.2004 14.4276C24.5266 14.2824 24.889 14.2097 25.2877 14.2097C25.5777 14.2097 25.8556 14.246 26.1093 14.3308C26.363 14.4155 26.6046 14.5366 26.7979 14.694C27.0033 14.8513 27.1725 15.0571 27.3054 15.2872C27.4383 15.5293 27.5228 15.7956 27.5591 16.0983H26.4355C26.4113 15.9651 26.3751 15.844 26.3026 15.7351Z" fill="white"></path><path d="M29.2505 18.6889C29.4075 18.8462 29.6371 18.9189 29.9271 18.9189C30.1445 18.9189 30.3258 18.8704 30.4707 18.7615C30.6278 18.6525 30.7124 18.5436 30.7486 18.4225H31.6668C31.5218 18.8825 31.2923 19.2094 30.9902 19.4031C30.6882 19.5968 30.3137 19.6936 29.8787 19.6936C29.5767 19.6936 29.3109 19.6452 29.0693 19.5484C28.8276 19.4515 28.6222 19.3184 28.4531 19.1368C28.284 18.9552 28.1511 18.7494 28.0665 18.4952C27.9698 18.253 27.9336 17.9746 27.9336 17.6841C27.9336 17.3935 27.9819 17.1272 28.0786 16.8851C28.1752 16.6429 28.3081 16.425 28.4773 16.2434C28.6464 16.0619 28.8518 15.9166 29.0934 15.8197C29.3351 15.7108 29.6009 15.6624 29.8908 15.6624C30.217 15.6624 30.4949 15.7229 30.7365 15.8561C30.9782 15.9771 31.1715 16.1466 31.3285 16.3645C31.4856 16.5824 31.5943 16.8245 31.6668 17.0909C31.7393 17.3572 31.7635 17.6477 31.7393 17.9383H28.9847C29.0089 18.2894 29.0934 18.5315 29.2505 18.6889ZM30.4466 16.6793C30.3258 16.5461 30.1324 16.4735 29.8787 16.4735C29.7096 16.4735 29.5767 16.4977 29.4559 16.5582C29.3471 16.6187 29.2626 16.6914 29.1901 16.764C29.1297 16.8487 29.0813 16.9335 29.0451 17.0303C29.0209 17.1272 28.9968 17.2119 28.9968 17.2846H30.7003C30.652 17.0182 30.5674 16.8124 30.4466 16.6793Z" fill="white"></path><path d="M33.2254 15.7836V16.4979H33.2375C33.2858 16.3768 33.3583 16.2679 33.4308 16.171C33.5153 16.0742 33.612 15.9894 33.7207 15.9168C33.8295 15.8441 33.9503 15.7957 34.0711 15.7473C34.1919 15.711 34.3248 15.6868 34.4577 15.6868C34.5302 15.6868 34.6027 15.6989 34.6872 15.7231V16.7037C34.6389 16.6916 34.5785 16.6795 34.506 16.6795C34.4335 16.6674 34.3731 16.6674 34.3127 16.6674C34.1194 16.6674 33.9624 16.7037 33.8295 16.7642C33.6966 16.8247 33.5878 16.9216 33.5032 17.0305C33.4187 17.1395 33.3583 17.2727 33.3341 17.4179C33.2979 17.5632 33.2858 17.7206 33.2858 17.9022V19.6091H32.2347V15.7836H33.2254Z" fill="white"></path><path d="M37.4902 15.7834V16.4856H36.7169V18.3862C36.7169 18.5678 36.7411 18.6767 36.8015 18.7373C36.8619 18.7978 36.9827 18.822 37.1519 18.822C37.2123 18.822 37.2727 18.822 37.321 18.8099C37.3693 18.8099 37.4298 18.7978 37.4781 18.7857V19.5968C37.3935 19.6089 37.2848 19.621 37.1881 19.621C37.0794 19.621 36.9706 19.6331 36.874 19.6331C36.7169 19.6331 36.5599 19.621 36.4149 19.5968C36.2699 19.5726 36.137 19.5363 36.0283 19.4636C35.9196 19.4031 35.835 19.3063 35.7625 19.1852C35.7021 19.0641 35.6658 18.9068 35.6658 18.7252V16.4613H35.0255V15.7592H35.6658V14.6091H36.7169V15.7592H37.4902V15.7834Z" fill="white"></path><path d="M38.0218 14.3186H39.0729V15.1902H38.0218V14.3186ZM39.0729 19.6089H38.0218V15.7834H39.0729V19.6089Z" fill="white"></path><path d="M39.5078 16.4857V15.7835H40.136V15.493C40.136 15.154 40.2447 14.8756 40.4501 14.6577C40.6676 14.4398 40.9817 14.3308 41.4166 14.3308C41.5133 14.3308 41.5979 14.3308 41.6945 14.3429C41.7912 14.355 41.8757 14.355 41.9724 14.3671V15.154C41.8516 15.1419 41.7187 15.1298 41.5858 15.1298C41.4408 15.1298 41.3442 15.1661 41.2837 15.2267C41.2233 15.2872 41.1871 15.4082 41.1871 15.5656V15.7956H41.912V16.4978H41.1871V19.609H40.136V16.4857H39.5078Z" fill="white"></path><path d="M42.5403 14.3186H43.5914V15.1902H42.5403V14.3186ZM43.5914 19.6089H42.5403V15.7834H43.5914V19.6089Z" fill="white"></path><path d="M45.2466 18.6889C45.4036 18.8462 45.6332 18.9189 45.9232 18.9189C46.1406 18.9189 46.3218 18.8704 46.4668 18.7615C46.6239 18.6525 46.7085 18.5436 46.7447 18.4225H47.6629C47.5179 18.8825 47.2884 19.2094 46.9863 19.4031C46.6843 19.5968 46.3098 19.6936 45.8748 19.6936C45.5728 19.6936 45.307 19.6452 45.0654 19.5484C44.8237 19.4515 44.6183 19.3184 44.4492 19.1368C44.2801 18.9552 44.1472 18.7494 44.0626 18.4952C43.9659 18.253 43.9297 17.9746 43.9297 17.6841C43.9297 17.3935 43.978 17.1272 44.0747 16.8851C44.1713 16.6429 44.3042 16.425 44.4734 16.2434C44.6425 16.0619 44.8479 15.9166 45.0895 15.8197C45.3312 15.7108 45.597 15.6624 45.8869 15.6624C46.2131 15.6624 46.491 15.7229 46.7326 15.8561C46.9743 15.9771 47.1676 16.1466 47.3246 16.3645C47.4817 16.5824 47.5904 16.8245 47.6629 17.0909C47.7354 17.3572 47.7596 17.6477 47.7354 17.9383H44.9808C45.005 18.2894 45.0895 18.5315 45.2466 18.6889ZM46.4306 16.6793C46.3098 16.5461 46.1165 16.4735 45.8627 16.4735C45.6936 16.4735 45.5607 16.4977 45.4399 16.5582C45.3312 16.6187 45.2345 16.6914 45.1741 16.764C45.1016 16.8487 45.0654 16.9335 45.0291 17.0303C45.005 17.1272 44.9808 17.2119 44.9808 17.2846H46.6843C46.6481 17.0182 46.5514 16.8124 46.4306 16.6793Z" fill="white"></path><path d="M50.9249 19.1126C50.8041 19.3184 50.6349 19.4637 50.4416 19.5605C50.2362 19.6573 50.0187 19.6937 49.765 19.6937C49.4751 19.6937 49.2334 19.6331 49.016 19.5242C48.7985 19.4152 48.6173 19.2578 48.4844 19.0763C48.3394 18.8826 48.2427 18.6647 48.1703 18.4225C48.0978 18.1804 48.0615 17.9141 48.0615 17.6478C48.0615 17.3935 48.0978 17.1393 48.1703 16.9093C48.2427 16.6672 48.3515 16.4614 48.4844 16.2798C48.6294 16.0982 48.7985 15.9529 49.016 15.844C49.2334 15.735 49.4751 15.6745 49.7529 15.6745C49.9825 15.6745 50.2 15.7229 50.3933 15.8197C50.5987 15.9166 50.7557 16.0619 50.8765 16.2435H50.8886V14.3186H51.9397V19.6089H50.9369V19.1247H50.9249V19.1126ZM50.8765 17.224C50.8524 17.0788 50.792 16.9456 50.7195 16.8367C50.647 16.7277 50.5503 16.6308 50.4416 16.5703C50.3329 16.4977 50.1879 16.4614 50.0187 16.4614C49.8496 16.4614 49.7046 16.4977 49.5838 16.5703C49.463 16.643 49.3663 16.7277 49.2938 16.8488C49.2214 16.9577 49.173 17.0909 49.1368 17.2361C49.1005 17.3814 49.0885 17.5388 49.0885 17.6962C49.0885 17.8414 49.1005 17.9867 49.1368 18.1441C49.173 18.2894 49.2334 18.4225 49.3059 18.5436C49.3784 18.6647 49.4751 18.7494 49.5959 18.822C49.7167 18.8947 49.8496 18.931 50.0187 18.931C50.1879 18.931 50.3329 18.8947 50.4537 18.822C50.5745 18.7494 50.6591 18.6647 50.7316 18.5436C50.8041 18.4225 50.8524 18.3015 50.8765 18.1441C50.9007 17.9988 50.9249 17.8414 50.9249 17.6841C50.9249 17.5267 50.9128 17.3693 50.8765 17.224Z" fill="white"></path><path d="M31.0266 28.2041H37.1398C38.6259 28.2041 40.5831 28.2041 41.598 28.8215C42.7095 29.4873 43.5793 30.6858 43.5793 32.3444C43.5793 34.136 42.637 35.4919 41.0785 36.1335V36.1819C43.1565 36.6057 44.2922 38.1673 44.2922 40.2496C44.2922 42.7313 42.5162 45.1041 39.1696 45.1041H31.0266V28.2041ZM33.2737 35.4677H37.7681C40.3173 35.4677 41.3563 34.5476 41.3563 32.7681C41.3563 30.4195 39.7011 30.0926 37.7681 30.0926H33.2737V35.4677ZM33.2737 43.2034H38.8917C40.8247 43.2034 42.0571 42.017 42.0571 40.1769C42.0571 37.9736 40.2811 37.3562 38.3963 37.3562H33.2737V43.2034Z" fill="white"></path><path d="M50.0309 36.6543C50.0309 43.7484 44.2921 49.4987 37.2002 49.4987C30.1204 49.4987 24.3816 43.7484 24.3816 36.6543C24.3816 29.5601 30.1204 23.8098 37.2002 23.8098C44.2921 23.8098 50.0309 29.5601 50.0309 36.6543ZM37.2123 21.8486C29.0572 21.8486 22.4365 28.4706 22.4365 36.6543C22.4365 44.8258 29.0451 51.4599 37.2123 51.4599C45.3674 51.4599 51.9881 44.8379 51.9881 36.6543C51.9881 28.4706 45.3674 21.8486 37.2123 21.8486Z" fill="white"></path><path d="M25.167 54.6437C25.1187 54.2684 24.7562 53.99 24.3454 53.99C23.6085 53.99 23.3306 54.6195 23.3306 55.2732C23.3306 55.8906 23.6085 56.5201 24.3454 56.5201C24.8529 56.5201 25.1307 56.1691 25.1912 55.6848H25.9885C25.904 56.617 25.2636 57.2102 24.3454 57.2102C23.1856 57.2102 22.509 56.3507 22.509 55.2611C22.509 54.1474 23.1856 53.2878 24.3454 53.2878C25.167 53.2878 25.8556 53.7721 25.9523 54.6316H25.167V54.6437Z" fill="white"></path><path d="M27.704 54.3533C28.5618 54.3533 29.1055 54.9223 29.1055 55.7818C29.1055 56.6413 28.5618 57.2103 27.704 57.2103C26.8583 57.2103 26.3026 56.6413 26.3026 55.7818C26.3146 54.9101 26.8583 54.3533 27.704 54.3533ZM27.704 56.6413C28.2114 56.6413 28.3685 56.2055 28.3685 55.7818C28.3685 55.346 28.2114 54.9101 27.704 54.9101C27.1966 54.9101 27.0516 55.346 27.0516 55.7818C27.0516 56.2055 27.2087 56.6413 27.704 56.6413Z" fill="white"></path><path d="M29.5405 54.4259H30.2412V54.9344H30.2533C30.3862 54.5954 30.7607 54.3533 31.1111 54.3533C31.1594 54.3533 31.2198 54.3654 31.2681 54.3775V55.0675C31.1956 55.0554 31.0869 55.0433 31.0023 55.0433C30.4587 55.0433 30.2654 55.4307 30.2654 55.9149V57.1377H29.5284V54.4259H29.5405Z" fill="white"></path><path d="M31.6789 54.4259H32.3796V54.777H32.3917C32.5729 54.4864 32.8629 54.3533 33.2012 54.3533C34.0469 54.3533 34.4335 55.0433 34.4335 55.806C34.4335 56.5323 34.0348 57.2103 33.2495 57.2103C32.9233 57.2103 32.6213 57.065 32.44 56.7987H32.4159V58.094H31.6789V54.4259ZM33.6844 55.7818C33.6844 55.346 33.5153 54.9101 33.032 54.9101C32.5488 54.9101 32.3917 55.346 32.3917 55.7818C32.3917 56.2176 32.5609 56.6413 33.0441 56.6413C33.5274 56.6413 33.6844 56.2297 33.6844 55.7818Z" fill="white"></path><path d="M36.1853 54.3533C37.0431 54.3533 37.5868 54.9223 37.5868 55.7818C37.5868 56.6413 37.0311 57.2103 36.1853 57.2103C35.3396 57.2103 34.7839 56.6413 34.7839 55.7818C34.7839 54.9101 35.3396 54.3533 36.1853 54.3533ZM36.1853 56.6413C36.6928 56.6413 36.8498 56.2055 36.8498 55.7818C36.8498 55.346 36.6928 54.9101 36.1853 54.9101C35.6779 54.9101 35.5329 55.346 35.5329 55.7818C35.5329 56.2055 35.6779 56.6413 36.1853 56.6413Z" fill="white"></path><path d="M38.0821 54.4259H38.7828V54.9344H38.7949C38.9278 54.5954 39.3023 54.3533 39.6527 54.3533C39.701 54.3533 39.7735 54.3654 39.8098 54.3775V55.0675C39.7373 55.0554 39.6285 55.0433 39.544 55.0433C39.0003 55.0433 38.807 55.4307 38.807 55.9149V57.1377H38.07V54.4259H38.0821Z" fill="white"></path><path d="M40.0876 55.2612C40.136 54.5591 40.7521 54.3533 41.3562 54.3533C41.8999 54.3533 42.5402 54.4743 42.5402 55.1281V56.5324C42.5402 56.7745 42.5644 57.0287 42.6368 57.1376H41.8878C41.8636 57.0529 41.8395 56.9682 41.8395 56.8713C41.6099 57.1134 41.2595 57.2103 40.9333 57.2103C40.4259 57.2103 40.0151 56.9561 40.0151 56.3992C40.0151 55.7818 40.4742 55.6365 40.9333 55.576C41.3924 55.5033 41.8153 55.5276 41.8153 55.2249C41.8153 54.9101 41.5978 54.8617 41.332 54.8617C41.0542 54.8617 40.8609 54.9707 40.8367 55.2733H40.0876V55.2612ZM41.8032 55.806C41.6824 55.9149 41.4166 55.927 41.1871 55.9634C40.9575 56.0118 40.7521 56.0844 40.7521 56.3629C40.7521 56.6413 40.9696 56.7139 41.2112 56.7139C41.7911 56.7139 41.8153 56.2539 41.8153 56.0965V55.806H41.8032Z" fill="white"></path><path d="M44.0626 54.4258H44.6063V54.9222H44.0626V56.266C44.0626 56.5202 44.123 56.5807 44.3767 56.5807C44.4613 56.5807 44.5338 56.5807 44.6063 56.5565V57.1376C44.4855 57.1618 44.3163 57.1618 44.1713 57.1618C43.7122 57.1618 43.3256 57.0528 43.3256 56.5202V54.9222H42.8786V54.4258H43.3256V53.6147H44.0626V54.4258Z" fill="white"></path><path d="M45.7178 54.0022H44.9808V53.3848H45.7178V54.0022ZM44.9808 54.4259H45.7178V57.1376H44.9808V54.4259Z" fill="white"></path><path d="M47.5179 54.3533C48.3757 54.3533 48.9193 54.9223 48.9193 55.7818C48.9193 56.6413 48.3636 57.2103 47.5179 57.2103C46.6722 57.2103 46.1285 56.6413 46.1285 55.7818C46.1164 54.9101 46.6722 54.3533 47.5179 54.3533ZM47.5179 56.6413C48.0253 56.6413 48.1824 56.2055 48.1824 55.7818C48.1824 55.346 48.0374 54.9101 47.5179 54.9101C47.0104 54.9101 46.8655 55.346 46.8655 55.7818C46.8655 56.2055 47.0104 56.6413 47.5179 56.6413Z" fill="white"></path><path d="M49.3906 54.4259H50.0913V54.8012H50.1034C50.2967 54.4985 50.6108 54.3533 50.9249 54.3533C51.7102 54.3533 51.9156 54.8012 51.9156 55.467V57.1377H51.1786V55.6123C51.1786 55.1644 51.0457 54.9465 50.7075 54.9465C50.3088 54.9465 50.1275 55.1765 50.1275 55.7212V57.1377H49.3906V54.4259Z" fill="white"></path><path d="M51.9397 59.4377H22.4968V61.3263H51.9397V59.4377Z" fill="white"></path><path d="M52.3626 53.2758H52.1935V53.7479H52.1089V53.2758H51.9398V53.2031H52.3747V53.2758H52.3626ZM53.0875 53.7479H53.0029V53.2879L52.8217 53.7479H52.7613L52.5801 53.2879V53.7479H52.4834V53.2031H52.6284L52.7976 53.6147L52.9546 53.2031H53.0996V53.7479H53.0875Z" fill="white"></path><rect x="0.373941" y="0.373941" width="74.2521" height="74.7881" rx="7.10487" stroke="white" stroke-width="0.747881"></rect></svg>