<svg class="" width="65" height="65" viewBox="0 0 75 75" fill="none" xmlns="http://www.w3.org/2000/svg"><g clip-path="url(#clip0_9300_71412)"><path d="M64.5688 35.408V37.9162H55.3117V41.2817H64.0501V43.5263H55.3117V49.1358H52.1847V35.408H64.5688Z" fill="white"></path><mask id="mask0_9300_71412" style="mask-type:luminance" maskUnits="userSpaceOnUse" x="4" y="24" width="66" height="26"><path d="M70 24H4V50H70V24Z" fill="white"></path></mask><g mask="url(#mask0_9300_71412)"><path d="M21.9904 49.1359H25.5989L16.9797 34.7981H16.8363L8.21667 49.1359H11.576L12.7714 47.0138H20.7945L21.9904 49.1359ZM13.9673 44.8917L16.7832 39.8931L19.5991 44.8917H13.9673Z" fill="white"></path></g><mask id="mask1_9300_71412" style="mask-type:luminance" maskUnits="userSpaceOnUse" x="4" y="24" width="66" height="26"><path d="M70 24H4V50H70V24Z" fill="white"></path></mask><g mask="url(#mask1_9300_71412)"><path d="M28.9103 35.6969C28.2905 35.5658 27.7042 35.4722 27.1468 35.4084V49.1358H30.0596V39.0083C34.3745 40.5282 38.16 44.1395 40.6863 49.1358H43.8999C40.6979 41.9981 35.2034 37.0325 28.9103 35.6969Z" fill="white"></path><path d="M46.0867 35.6969C46.7065 35.5658 47.2923 35.4722 47.8493 35.4084V49.1358H44.9374V39.0083C40.6225 40.5282 36.837 44.1395 34.3103 49.1358H31.0971C34.2991 41.9981 39.7926 37.0325 46.0867 35.6969Z" fill="white"></path><path d="M19.7538 27.2397L20.0988 26.515L20.4439 27.2397H19.7538ZM19.1018 27.8868H19.4445L19.6196 27.5135H20.5719L20.7442 27.8868H21.0846L20.2828 26.2605H19.9149L19.1018 27.8868Z" fill="white"></path><path d="M23.345 27.1883C23.345 27.7121 23.0065 27.9267 22.4682 27.9267C21.9294 27.9267 21.5913 27.7116 21.5913 27.1883V26.2605H21.9145V27.1663C21.9145 27.4346 22.0118 27.6538 22.4682 27.6538C22.9245 27.6538 23.0228 27.4346 23.0228 27.1663V26.2605H23.345V27.1883Z" fill="white"></path><path d="M24.6783 26.5329H23.9397V26.26H25.74V26.5329H25.0014V27.8868H24.6783V26.5329Z" fill="white"></path><path d="M27.1468 27.6539C26.838 27.6539 26.486 27.5287 26.486 27.0677C26.486 26.6765 26.77 26.4926 27.1468 26.4926C27.5244 26.4926 27.8076 26.6765 27.8076 27.0677C27.8076 27.5287 27.456 27.6539 27.1468 27.6539ZM26.1633 27.0856C26.1633 27.4236 26.3654 27.9272 27.1468 27.9272C27.9286 27.9272 28.1307 27.4236 28.1307 27.0856C28.1307 26.6403 27.8737 26.2197 27.1468 26.2197C26.4203 26.2197 26.1633 26.6403 26.1633 27.0856Z" fill="white"></path><path d="M29.1152 26.9828V26.5238H29.7378C30.0014 26.5238 30.1355 26.5618 30.1355 26.7522C30.1355 26.9443 30.0014 26.9828 29.7378 26.9828H29.1152ZM28.7929 27.8868H29.1152V27.247H29.6265L30.1057 27.8868H30.5024L29.9962 27.225C30.2393 27.2112 30.4573 27.0457 30.4573 26.7457C30.4573 26.3476 30.176 26.2605 29.7858 26.2605H28.7925L28.7929 27.8868Z" fill="white"></path><path d="M31.5367 26.2605H31.2135V27.8868H31.5367V26.2605Z" fill="white"></path><path d="M32.9002 26.5329H32.1621V26.26H33.961V26.5329H33.2229V27.8868H32.9002V26.5329Z" fill="white"></path><path d="M35.3226 25.821H35.6421L35.2779 26.1412H35.0777L35.3226 25.821ZM34.5873 26.26H36.0691V26.5328H34.911V26.9108H35.908V27.1832H34.911V27.6134H36.0961V27.8863H34.5873V26.26Z" fill="white"></path><path d="M19.473 29.6874H20.0881C20.4243 29.6874 20.7675 29.8282 20.7675 30.3048C20.7675 30.9446 20.2199 30.9647 20.0569 30.9647H19.473V29.6874ZM19.2732 31.139H20.0248C20.4611 31.139 20.9724 30.9734 20.9724 30.3112C20.9724 29.7782 20.6022 29.5127 20.0886 29.5127H19.2737L19.2732 31.139Z" fill="white"></path><path d="M21.6332 29.5132H23.1052V29.6875H21.833V30.2066H22.8961V30.3809H21.833V30.9648H23.1322V31.1395H21.6332V29.5132Z" fill="white"></path><path d="M23.7567 30.6739C23.8526 30.7991 24.0114 31.005 24.5064 31.005C24.7612 31.005 25.1081 30.9334 25.1081 30.6807C25.1081 30.1859 23.6682 30.6202 23.6682 29.9602C23.6682 29.6139 23.9933 29.4731 24.4431 29.4731C24.8795 29.4731 25.1472 29.6493 25.2608 29.8061L25.1156 29.9221C25.0471 29.846 24.8888 29.6378 24.4389 29.6378C24.1069 29.6378 23.8727 29.7231 23.8727 29.929C23.8727 30.4207 25.313 29.951 25.313 30.6807C25.313 30.9536 25.0443 31.1797 24.4836 31.1797C23.943 31.1797 23.7437 30.9577 23.6021 30.8036L23.7567 30.6739Z" fill="white"></path><path d="M27.1473 29.5132H27.4556L28.067 30.8817L28.6779 29.5132H28.9867V31.1395H28.8032V29.6875H28.7986L28.1536 31.1395H27.985L27.3359 29.6875H27.3308V31.1395H27.1473V29.5132Z" fill="white"></path><path d="M30.1113 30.5419L30.5541 29.6673L30.9975 30.5419H30.1113ZM29.5823 31.139H29.8049L30.0209 30.7162H31.0864L31.2997 31.139H31.5251L30.6775 29.5127H30.4331L29.5823 31.139Z" fill="white"></path><path d="M32.319 29.6874H33.0278C33.3165 29.6874 33.5321 29.7278 33.5321 29.9649C33.5321 30.2039 33.316 30.2442 33.0278 30.2442H32.319V29.6874ZM32.1197 31.139H32.319V30.419H32.9691L33.5009 31.139H33.7482L33.2034 30.4144C33.4027 30.4052 33.723 30.3066 33.723 29.9672C33.723 29.5686 33.337 29.5127 33.0734 29.5127H32.1193L32.1197 31.139Z" fill="white"></path><path d="M36.1967 30.7075C36.0197 31.0455 35.7128 31.1799 35.3114 31.1799C34.6707 31.1799 34.368 30.8011 34.368 30.3296C34.368 29.7696 34.7522 29.4724 35.3082 29.4724C35.6626 29.4724 36.0244 29.6068 36.172 29.9379L35.9992 30.0164C35.8833 29.7499 35.6267 29.638 35.311 29.638C34.8383 29.638 34.5724 29.8911 34.5724 30.3544C34.5724 30.7277 34.829 31.0052 35.3291 31.0052C35.6556 31.0052 35.8833 30.8708 36.0193 30.6227L36.1967 30.7075Z" fill="white"></path><path d="M36.8468 29.5132H37.0461V30.2016H38.3453V29.5132H38.546V31.1395H38.3453V30.3763H37.0461V31.1395H36.8468V29.5132Z" fill="white"></path><path d="M40.0721 29.0876H40.331L39.9943 29.4055H39.8285L40.0721 29.0876ZM39.3246 29.5133H40.7971V29.6875H39.524V30.2067H40.5876V30.381H39.524V30.9644H40.8241V31.1391H39.3246V29.5133Z" fill="white"></path><path d="M41.4476 30.6739C41.5436 30.7991 41.7019 31.005 42.1978 31.005C42.4526 31.005 42.8 30.9334 42.8 30.6807C42.8 30.1859 41.3601 30.6202 41.3601 29.9602C41.3601 29.6139 41.6837 29.4731 42.1336 29.4731C42.5694 29.4731 42.8391 29.6493 42.9522 29.8061L42.8065 29.9221C42.738 29.846 42.5797 29.6378 42.1298 29.6378C41.7988 29.6378 41.5641 29.7231 41.5641 29.929C41.5641 30.4207 43.0039 29.951 43.0039 30.6807C43.0039 30.9536 42.7362 31.1797 42.175 31.1797C41.6348 31.1797 41.4355 30.9577 41.293 30.8036L41.4476 30.6739Z" fill="white"></path><path d="M44.8387 29.5132H46.3465V29.6875H45.0385V30.2016H46.1426V30.3763H45.0385V31.1395H44.8387V29.5132Z" fill="white"></path><path d="M47.1471 29.5132H46.9464V31.1395H47.1471V29.5132Z" fill="white"></path><path d="M47.9186 29.5132H48.2022L49.4316 30.851V29.5132H49.6309V31.1395H49.4316L48.1096 29.6875V31.1395H47.9186V29.5132Z" fill="white"></path><path d="M50.7565 30.5419L51.1989 29.6673L51.6417 30.5419H50.7565ZM50.2266 31.139H50.4496L50.6648 30.7162H51.7298L51.943 31.139H52.1689L51.3218 29.5127H51.0764L50.2266 31.139Z" fill="white"></path><path d="M52.7645 29.5132H53.0476L54.276 30.851V29.5132H54.4767V31.1395H54.276L52.9545 29.6875V31.1395H52.7645V29.5132Z" fill="white"></path><path d="M56.9662 30.7075C56.7883 31.0455 56.481 31.1799 56.08 31.1799C55.4397 31.1799 55.1375 30.8011 55.1375 30.3296C55.1375 29.7696 55.5208 29.4724 56.0782 29.4724C56.4335 29.4724 56.7935 29.6068 56.9415 29.9379L56.7683 30.0164C56.6528 29.7499 56.3962 29.638 56.0805 29.638C55.6078 29.638 55.3419 29.8911 55.3419 30.3544C55.3419 30.7277 55.599 31.0052 56.0991 31.0052C56.426 31.0052 56.6524 30.8708 56.7888 30.6227L56.9662 30.7075Z" fill="white"></path><path d="M57.8086 29.5132H57.6093V31.1395H57.8086V29.5132Z" fill="white"></path><path d="M58.5812 29.5132H60.0532V29.6875H58.781V30.2066H59.8441V30.3809H58.781V30.9648H60.0806V31.1395H58.5812V29.5132Z" fill="white"></path><path d="M60.8891 29.6874H61.5974C61.8861 29.6874 62.1022 29.7278 62.1022 29.9649C62.1022 30.2039 61.8861 30.2442 61.5974 30.2442H60.8891V29.6874ZM60.6888 31.139H60.8891V30.419H61.5392L62.0714 31.139H62.3182L61.7729 30.4144C61.9722 30.4052 62.2926 30.3066 62.2926 29.9672C62.2926 29.5686 61.9066 29.5127 61.6425 29.5127H60.6888V31.139Z" fill="white"></path><path d="M63.0647 30.6739C63.1606 30.7991 63.319 31.005 63.8144 31.005C64.0687 31.005 64.4166 30.9334 64.4166 30.6807C64.4166 30.1859 62.9767 30.6202 62.9767 29.9602C62.9767 29.6139 63.3008 29.4731 63.7506 29.4731C64.1874 29.4731 64.4557 29.6493 64.5688 29.8061L64.4235 29.9221C64.3556 29.846 64.1972 29.6378 63.7474 29.6378C63.4144 29.6378 63.1802 29.7231 63.1802 29.929C63.1802 30.4207 64.6214 29.951 64.6214 30.6807C64.6214 30.9536 64.3532 31.1797 63.7925 31.1797C63.2519 31.1797 63.0512 30.9577 62.9101 30.8036L63.0647 30.6739Z" fill="white"></path><path d="M16.9793 24.7539H16.8363V32.6452H16.9793V24.7539Z" fill="white"></path></g></g><rect x="0.373941" y="0.373941" width="74.2521" height="74.0403" rx="7.10487" stroke="white" stroke-width="0.747881"></rect><defs><clipPath id="clip0_9300_71412"><rect width="66" height="26" fill="white" transform="translate(4 24)"></rect></clipPath></defs></svg>