<svg class="" width="65" height="65" viewBox="0 0 75 75" fill="none" xmlns="http://www.w3.org/2000/svg"><path d="M22.28 53.1499L17.9492 53.1505V51.2528H22.4048C24.3613 51.2528 25.6457 52.4959 25.6457 54.0984C25.6457 55.7009 24.3613 56.9566 22.4048 56.9566H20.1006V59.302H17.9492V55.0589L22.28 55.0602C23.216 55.0602 23.4942 54.637 23.4942 54.0984C23.4942 53.5731 23.216 53.1499 22.28 53.1499Z" fill="white"></path><path d="M27.6909 59.3022V51.2531H34.8284V53.1501H29.8423V54.2393H33.2334V56.1369H29.8423V57.4058H34.8284V59.3022H27.6909Z" fill="white"></path><path d="M37.1794 59.3022V51.2531H44.317V53.1501H39.3309V54.2393H42.7233V56.1369H39.3309V59.3022H37.1794Z" fill="white"></path><path d="M53.584 57.9871C52.6325 58.9886 51.3406 59.4565 50.0345 59.4565C47.4365 59.4565 45.3552 57.6358 45.3552 55.2778C45.3552 52.9197 47.4365 51.099 50.0345 51.099C51.3469 51.099 52.6468 51.5726 53.5995 52.5842L51.8679 53.8071C51.4034 53.2767 50.7779 52.996 50.0345 52.996C48.7507 52.996 47.5756 54.0095 47.5756 55.2778C47.5756 56.546 48.7507 57.5595 50.0345 57.5595C50.745 57.5595 51.391 57.2934 51.84 56.8475L53.584 57.9871Z" fill="white"></path><path d="M44.1917 36.4906H39.0876V40.1592H35.6877V36.4906H30.3632L30.4843 36.4502C32.7792 35.175 34.3313 32.73 34.3313 29.9235C34.3313 29.4467 34.2859 28.98 34.2009 28.5279L37.3932 22.3663L44.1917 36.4906Z" fill="white"></path><path d="M20.3375 30.031C20.3375 26.563 23.1554 23.7521 26.6304 23.7521C30.106 23.7521 32.9232 26.563 32.9232 30.031C32.9232 32.9523 30.9233 35.4074 28.2154 36.1081V40.2673H24.8162V36.0444C22.225 35.2674 20.3375 32.869 20.3375 30.031Z" fill="white"></path><path d="M18.8151 31.4489C18.876 31.196 18.9418 30.9444 19.0133 30.6946C19.0133 30.6946 19.0232 30.6669 19.0518 30.6644C19.0984 30.6606 19.0953 30.6946 19.0953 30.6946C19.1393 31.1947 19.2306 31.6823 19.3642 32.1508C18.2245 39.4331 22.9454 45.1551 30.3742 45.1551C37.5757 45.1551 44.8139 39.7781 47.3926 32.8124L50.7633 29.62L52.7079 31.8128C50.3192 40.9593 41.024 48.3135 31.7623 48.3135C22.3777 48.3135 16.5805 40.7644 18.8151 31.4489ZM48.1503 30.0287C49.4521 22.6171 44.7058 16.7544 37.1857 16.7544C32.4269 16.7544 27.6526 19.103 24.2167 22.7048C23.8497 22.8315 23.4944 22.9854 23.1553 23.1645C23.1553 23.1645 23.1118 23.1897 23.0739 23.1475C23.041 23.1103 23.0646 23.0737 23.0646 23.0737C27.211 18.0013 33.5399 14.5837 39.8526 14.5837C48.5547 14.5837 54.1706 21.0758 53.1619 29.4459L51.1539 27.1825L48.1503 30.0287Z" fill="white"></path><path d="M54.3095 49.7727H55.3927V50.0616H55.0287V50.9395H54.6728V50.0616H54.3095V49.7727Z" fill="white"></path><path d="M55.5483 49.7727H56.0172L56.1942 50.4829L56.3712 49.7727H56.8389V50.9395H56.5482V50.0496L56.3259 50.9395H56.0607L55.8402 50.0496V50.9395H55.5483V49.7727Z" fill="white"></path><rect x="0.373941" y="0.373941" width="74.2521" height="74.2521" rx="7.10487" stroke="white" stroke-width="0.747881"></rect></svg>