<svg class="" width="65" height="65" viewBox="0 0 75 76" fill="none" xmlns="http://www.w3.org/2000/svg"><g clip-path="url(#clip0_10999_81070)"><path d="M37.455 65.8314C34.5512 65.8314 31.6884 65.5016 28.9053 64.6631C24.7974 63.4284 21.7626 60.8593 19.7138 57.1269C17.7111 53.4764 16.5224 49.5473 15.7368 45.4801C14.0602 36.7986 15.3106 28.4776 18.846 20.4455C20.5456 16.5905 23.185 13.5995 27.1055 11.8509C28.9156 11.0431 30.8463 10.675 32.7925 10.3734C37.3138 9.67036 41.7863 9.95667 46.1613 11.2451C49.9791 12.3699 52.8906 14.7371 54.8983 18.1575C57.2578 22.171 58.5493 26.5603 59.3401 31.1081C59.8022 33.7642 60.1077 36.4433 59.9588 39.1454C59.6096 45.4034 58.2771 51.4185 55.3091 56.9966C52.906 61.5111 49.0933 64.1851 44.0996 65.1386C41.9172 65.5553 39.6861 65.7215 37.4755 66.0001C37.4678 65.9439 37.4627 65.8876 37.455 65.8314ZM58.4363 37.269C58.3105 35.9039 58.2052 33.8818 57.9228 31.8853C57.3066 27.5266 56.254 23.2728 54.3027 19.2926C52.3822 15.3787 49.3578 12.7355 45.0804 11.6285C40.5847 10.4628 36.0531 10.3887 31.4959 11.2323C28.7076 11.7487 26.1478 12.7585 24.0066 14.6706C21.9398 16.5163 20.597 18.8401 19.6342 21.3888C17.2002 27.8334 16.0731 34.4851 16.6482 41.3771C17.0693 46.4132 18.1861 51.2882 20.2504 55.9203C22.2273 60.3556 25.5162 63.2725 30.3251 64.3871C34.6385 65.3866 38.9621 65.4326 43.3165 64.6631C48.6491 63.7198 52.449 60.8439 54.6288 55.8922C57.1474 50.1685 58.2566 44.1482 58.4363 37.2716V37.269Z" fill="white"></path><path d="M23.2518 37.8749C23.316 42.9851 24.1171 47.9035 25.9733 52.6405C27.0234 55.3221 28.8078 57.1193 31.6706 57.7865C35.2342 58.6199 38.8055 58.6761 42.3949 57.9859C44.2203 57.6357 45.8969 57.0119 47.2089 55.6187C48.3976 54.3584 48.9624 52.7785 49.5093 51.2012C51.1756 46.3825 51.8303 41.418 51.6326 36.3308C51.4478 31.5811 50.5722 26.9847 48.6929 22.5928C47.7095 20.2921 46.0278 18.8222 43.6118 18.1831C40.0045 17.2295 36.369 17.2347 32.7078 17.8431C29.2571 18.4183 27.0183 20.2998 25.8142 23.6103C24.1248 28.2501 23.3211 33.0152 23.2544 37.8774L23.2518 37.8749ZM19.7755 36.3589C19.7703 36.2848 19.7652 36.2107 19.7601 36.134C19.3416 36.0496 18.9051 35.8476 18.5123 35.9116C17.9397 36.0036 17.9243 36.5634 17.9089 37.0389C17.8935 37.4863 17.9166 37.9336 17.891 38.381C17.8653 38.8258 18.0758 38.946 18.4815 38.923C18.9693 38.8948 19.4622 38.9179 19.9501 38.8948C20.5714 38.8642 21.1927 38.8105 21.814 38.767C21.8217 38.0206 21.8936 37.269 21.8217 36.5302C21.7499 35.7888 20.8256 35.4361 20.2171 35.8681C20.0425 35.9934 19.9193 36.1928 19.7729 36.3589H19.7755ZM33.3985 61.3245C32.8439 61.8179 32.7001 62.5234 33.17 63.0731C33.6757 63.6636 35.0493 63.771 35.6655 63.2699C36.2817 62.7663 36.2509 62.1477 35.7066 61.46C35.8427 60.9283 36.0866 60.5039 36.0096 60.1511C35.8863 59.5632 35.3164 59.4021 34.7566 59.3638C34.1661 59.3229 33.5166 59.3382 33.2726 59.9517C33.134 60.2994 33.3343 60.78 33.3959 61.3271L33.3985 61.3245ZM45.8455 60.1C46.2127 59.2922 46.1613 58.8653 45.6786 58.5713C45.101 58.2185 43.9174 58.4435 43.4732 58.988C43.0496 59.5095 43.142 59.8495 43.9045 60.5934C43.3936 61.3552 43.4578 62.071 44.0688 62.4595C44.7723 62.9043 46.1613 62.5592 46.5927 61.8307C46.9752 61.1865 46.7133 60.555 45.8455 60.1ZM48.2769 19.4715C48.508 19.3053 48.7185 19.1494 48.9342 18.996C49.1601 18.835 49.3861 18.6739 49.6043 18.518C50.2273 19.1656 50.1349 19.9487 49.327 20.8673C49.4605 21.0258 49.5992 21.1919 49.8251 21.4604C50.277 20.8749 50.6826 20.3509 51.1191 19.7834C51.494 19.9316 51.9561 19.8907 52.3002 19.4229C52.6262 18.9807 52.5261 18.518 52.2514 18.1064C51.8817 17.5517 51.4657 17.0276 51.037 16.4473C49.9304 17.2909 48.8828 18.091 47.8225 18.8989C47.9996 19.1213 48.1254 19.2798 48.2769 19.4715ZM23.3751 26.8211C23.0618 26.7265 22.8308 26.6524 22.5946 26.5859C21.7319 26.3405 21.6754 26.205 22.0605 25.4176C22.2428 25.0418 22.5329 24.9294 22.9155 25.0009C23.2133 25.0572 23.5034 25.139 23.8475 25.2208C23.9168 24.9754 23.9733 24.7734 24.0734 24.4309H21.9835C21.8782 23.9605 21.5214 23.623 20.8975 23.6409C20.2376 23.6614 20.0014 24.1446 19.8268 24.6609C19.6394 25.2157 19.4982 25.7832 19.3236 26.3942C20.6227 26.7776 21.868 27.1457 23.1543 27.5266C23.2339 27.2736 23.2929 27.0869 23.3751 26.8211ZM54.159 35.7019C54.0768 35.6406 53.9947 35.5792 53.91 35.5179C53.6481 35.7428 53.3143 35.9243 53.1423 36.2055C52.7418 36.8574 52.788 37.5681 53.0961 38.2532C53.2989 38.7057 53.6763 38.9409 54.1693 38.9306C54.6725 38.9204 55.0165 38.6469 55.168 38.1688C55.2835 37.8007 55.3144 37.3994 55.4761 37.0568C55.5968 36.8012 55.8638 36.6171 56.0666 36.3998C56.2386 36.6708 56.5108 36.9264 56.5519 37.2153C56.5878 37.4633 56.3568 37.7496 56.2412 38.018C56.1514 38.2276 56.0615 38.4347 55.9228 38.7517C56.7829 38.5497 57.0833 38.1765 57.1373 37.4479C57.1989 36.6376 56.8728 35.9422 56.3388 35.7352C55.7406 35.5025 55.1757 35.7428 54.9446 36.3589C54.8394 36.6427 54.7906 36.9469 54.7264 37.246C54.5724 37.9515 54.2848 38.266 53.8791 38.1561C53.4863 38.0487 53.2707 37.3585 53.4915 36.8242C53.5582 36.6631 53.7251 36.5481 53.815 36.3922C53.9433 36.1698 54.0435 35.932 54.1564 35.7019H54.159ZM48.0484 14.3792L48.015 14.098C47.1575 13.7401 46.3025 13.3822 45.3911 13.0013C44.8596 14.259 44.3538 15.4529 43.8224 16.708C44.7467 17.0915 45.6222 17.452 46.4771 17.8047C46.8083 17.4622 46.7339 17.2705 46.3642 17.1375C46.0946 17.0429 45.8353 16.9202 45.5708 16.8129C45.0043 16.5879 44.8434 16.2027 45.0881 15.6574C45.1343 15.5526 45.2191 15.4656 45.3012 15.3506C45.8712 15.5679 46.4181 15.775 46.9598 15.9795C47.1832 15.4759 47.1883 15.4656 46.8237 15.2995C46.4027 15.1078 45.9713 14.9339 45.4887 14.7294C45.635 14.4022 45.7557 14.1338 45.8943 13.8219C46.454 14.0571 46.9521 14.2923 47.4707 14.4661C47.6351 14.5198 47.8559 14.4099 48.0484 14.3741V14.3792ZM25.9836 19.3948C25.922 19.405 25.8629 19.4178 25.8013 19.428C25.4573 20.0211 25.1158 20.6142 24.741 21.2584C24.3635 21.0462 24.0349 20.8596 23.6549 20.6449C23.963 20.0825 24.2429 19.5686 24.5484 19.0139C24.3841 18.9193 24.2352 18.835 24.0477 18.7276C23.8449 19.0676 23.6626 19.359 23.4932 19.6581C23.0541 20.4327 23.0053 20.4404 22.2788 19.7962C22.5355 19.3258 22.7845 18.8375 23.067 18.3723C23.2903 18.0041 23.2107 17.8124 22.7563 17.7434C22.2993 18.5665 21.8423 19.3948 21.3647 20.2537C22.574 20.9235 23.7088 21.5524 24.8847 22.2043C25.3366 21.399 25.7731 20.6628 26.1582 19.9035C26.2147 19.7936 26.0452 19.5686 25.9785 19.3948H25.9836ZM31.4266 12.5744C31.6295 13.6736 31.7989 14.7115 32.03 15.7392C32.0736 15.936 32.3278 16.1278 32.5307 16.2377C33.1802 16.5828 34.2586 16.4013 34.7489 15.8542C34.9261 15.6574 35.1135 15.3455 35.0853 15.1103C34.9672 14.1082 34.7695 13.1163 34.5949 12.081C34.3279 12.1424 34.1405 12.1858 33.8914 12.2446C34.0352 13.1266 34.1841 13.9676 34.3048 14.8087C34.3946 15.4247 34.1302 15.7775 33.5653 15.8542C33.0236 15.9258 32.7283 15.6983 32.6154 15.0847C32.4588 14.2284 32.3176 13.3694 32.1661 12.49C31.9196 12.5207 31.7424 12.5412 31.4241 12.5795L31.4266 12.5744ZM18.7228 29.5973C18.5405 30.0217 18.4147 30.3412 19.0746 30.4026C19.7652 30.4665 20.4482 30.6096 21.1337 30.7247C21.7755 30.832 22.0246 31.1414 21.9296 31.7063C21.832 32.2866 21.5214 32.5013 20.8821 32.4093C20.0194 32.2841 19.1619 32.1511 18.2812 32.0208C18.1888 32.3965 18.063 32.7161 18.5328 32.7979C19.3595 32.941 20.1863 33.0663 21.0156 33.1916C21.5804 33.2759 21.9912 33.0126 22.1966 32.5218C22.3481 32.1562 22.4405 31.7421 22.4533 31.3459C22.479 30.5253 22.1452 30.1546 21.3365 30.014C20.4918 29.8683 19.642 29.743 18.7202 29.5999L18.7228 29.5973ZM52.7135 33.5392C52.788 33.5904 52.8624 33.644 52.9343 33.6952C54.0922 33.0995 55.2553 32.5141 56.4004 31.8929C56.5236 31.8265 56.6186 31.5401 56.5827 31.3919C56.539 31.2155 56.3645 30.9982 56.2001 30.942C55.7945 30.8065 55.3631 30.7579 54.9421 30.6735C54.1128 30.5048 53.2835 30.3361 52.4542 30.1648C52.4106 30.2236 52.3643 30.2824 52.3207 30.3412C52.4516 30.5253 52.5723 30.8576 52.7135 30.8653C53.4504 30.9113 53.4375 31.4302 53.5146 31.9389C53.5839 32.3889 53.53 32.7084 53.0344 32.9027C52.8701 32.9666 52.8162 33.3168 52.7135 33.5341V33.5392ZM30.4048 16.8589C29.3547 15.9974 28.3534 15.1614 27.329 14.3536C27.2211 14.2693 26.9438 14.2999 26.8026 14.3766C26.6589 14.4559 26.4714 14.6834 26.4971 14.8087C26.7436 16.0996 27.026 17.3855 27.3007 18.6739C27.8373 18.5793 27.9554 18.3109 27.8399 17.8686C27.8014 17.7178 27.8039 17.4826 27.8938 17.3829C28.4766 16.7311 29.0774 16.6774 29.7372 17.1759C29.7655 17.1963 29.8117 17.1938 29.8887 17.2091C30.0299 17.112 30.1943 16.9995 30.4022 16.8563L30.4048 16.8589ZM39.2497 62.8225C39.7298 62.4135 40.1766 62.0659 40.5848 61.6747C41.07 61.2095 41.124 60.4604 40.7568 59.9389C40.4128 59.4481 39.5809 59.2717 38.9082 59.5427C38.3588 59.7651 38.12 60.2329 38.2689 61.005C38.5 60.8414 38.6874 60.7212 38.862 60.5857C39.1008 60.3991 39.3036 60.1153 39.5681 60.0438C39.7247 60.0003 40.1278 60.2738 40.1432 60.4323C40.174 60.7365 40.0893 61.1174 39.907 61.3603C39.6169 61.7463 39.1727 62.0122 38.8595 62.3828C38.5924 62.6998 38.423 63.0961 38.2099 63.4591C38.2612 63.5102 38.3126 63.5613 38.3639 63.6125C39.3088 63.5562 40.2562 63.5 41.201 63.4463C41.2138 63.3619 41.2267 63.2776 41.2395 63.1958C40.7748 62.5132 39.9558 63.1958 39.2497 62.8225ZM39.3704 12.1117C39.6605 13.3694 39.9301 14.5811 40.2305 15.7852C40.2664 15.9335 40.459 16.1201 40.6028 16.1431C40.762 16.1687 41.0444 16.0715 41.1034 15.9488C41.6657 14.778 42.1895 13.5918 42.7286 12.398C42.1946 12.1935 41.9096 12.2932 41.7838 12.7968C41.7119 13.0908 41.5681 13.3694 41.45 13.6506C41.2498 14.1236 41.0444 14.5939 40.8415 15.0643C40.7851 15.0541 40.7311 15.0413 40.6747 15.0311C40.5155 14.2181 40.3178 13.4103 40.2125 12.5923C40.1406 12.0427 39.8813 11.9711 39.3678 12.1117H39.3704ZM54.9138 24.9856C54.8651 25.0495 54.8163 25.116 54.7675 25.1799C54.7932 25.277 54.8188 25.3742 54.8419 25.4713C55.0499 26.3277 55.0473 26.3226 54.1795 26.5399C53.3759 26.7418 52.5774 26.9591 51.7302 27.1815C51.8046 27.4602 51.8611 27.6621 51.9253 27.8973C52.7803 27.6749 53.5685 27.4678 54.3567 27.2633C55.186 27.0486 55.1757 27.0537 55.4479 27.8206C55.4966 27.9587 55.6943 28.043 55.8227 28.153C55.8792 28.0047 56.005 27.8385 55.9768 27.7081C55.8022 26.9157 55.6122 26.1232 55.3785 25.346C55.3323 25.1927 55.0756 25.1032 54.9138 24.9856ZM29.2135 62.4237C29.5678 62.5286 29.8631 62.8174 30.0351 62.278C30.3637 61.2504 30.7078 60.2278 31.0235 59.195C31.0621 59.0698 31.0235 58.8448 30.9363 58.7809C30.8336 58.7042 30.6282 58.7144 30.4844 58.7528C30.0556 58.8678 29.6345 59.0161 29.0569 59.2002C29.3855 59.4047 29.6859 59.5887 30.0428 59.8086C29.7758 60.6471 29.5036 61.5111 29.2135 62.4237ZM54.2489 22.0585C53.1217 22.5443 52.0562 22.9993 50.9907 23.462C50.8649 23.5157 50.7494 23.5924 50.5722 23.6921C50.7597 23.9196 50.6621 24.4104 51.1628 24.2033C52.2899 23.7381 53.399 23.2345 54.5467 22.7334C54.444 22.5008 54.3644 22.3193 54.2489 22.0611V22.0585Z" fill="white"></path><path d="M23.2518 37.8746C23.3186 33.0124 24.1248 28.2473 25.8116 23.6075C27.0157 20.297 29.2571 18.4155 32.7052 17.8403C36.3665 17.2293 40.002 17.2268 43.6093 18.1803C46.0253 18.8194 47.707 20.2893 48.6903 22.5901C50.5671 26.9819 51.4426 31.5783 51.63 36.328C51.8277 41.4152 51.173 46.3823 49.5068 51.1985C48.9599 52.7758 48.395 54.3556 47.2063 55.6159C45.8943 57.0066 44.2178 57.6329 42.3923 57.9831C38.803 58.6733 35.2316 58.6171 31.668 57.7837C28.8053 57.1139 27.0209 55.3194 25.9708 52.6377C24.1171 47.9008 23.3135 42.9848 23.2493 37.8721L23.2518 37.8746ZM33.3933 33.4112C33.134 33.2041 32.9979 33.1147 32.8824 33.0022C32.2277 32.358 31.5884 31.6959 30.9183 31.0645C30.4484 30.6196 30.0017 30.093 29.2648 30.1288C29.08 30.139 28.8181 30.2106 28.7359 30.3436C28.4304 30.8421 29.0723 32.1637 29.6808 32.2174C30.4767 32.2864 30.9209 32.7542 31.3265 33.3473C31.6937 33.8841 32.048 34.4414 32.487 34.9169C33.0801 35.5586 33.2059 35.556 33.8478 34.9757C34.4434 34.4363 34.9852 33.833 35.5551 33.2527C35.758 33.5007 35.8632 33.7665 36.0404 33.8279C36.7618 34.0733 36.8029 34.7226 36.957 35.2876C37.0083 35.4768 36.9262 35.7784 36.7927 35.9267C35.3215 37.5858 34.4717 39.5082 34.2406 41.7118C34.2021 42.0901 34.1995 42.5349 33.9993 42.8187C33.2906 43.8157 32.8773 44.9124 32.7669 46.1036C32.6462 47.4099 32.333 48.5833 31.2187 49.4167C31.08 49.5189 30.9927 49.7056 30.9132 49.8692C30.6359 50.4597 30.8182 51.178 31.3188 51.5129C31.65 51.7328 31.8991 51.7455 32.0968 51.3212C32.2765 50.9352 32.4999 50.5619 32.7463 50.2143C33.2496 49.5087 33.6372 48.7853 33.7322 47.8905C33.7836 47.4023 34.0172 46.9038 34.2765 46.4743C34.7104 45.7611 35.2188 45.0913 35.7272 44.4266C35.9531 44.1301 36.0712 43.8796 35.948 43.4885C35.8401 43.1433 35.8786 42.7548 35.853 42.3841C36.1174 42.9669 36.2638 43.5626 36.4486 44.1429C36.6412 44.7436 36.8851 45.329 37.0776 45.9323C37.1418 46.1292 37.1778 46.3797 37.1136 46.5663C36.7927 47.4841 36.4332 48.3865 36.0943 49.2991C36.0609 49.386 36.0738 49.4908 36.0635 49.5829C36.862 49.7874 37.7375 49.4039 37.9609 48.8287C38.1868 48.251 38.4975 47.709 38.7362 47.1364C38.8287 46.9166 38.9493 46.5561 38.8492 46.4308C38.3537 45.825 38.4384 45.1322 38.4358 44.4445C38.4307 43.1766 38.4487 41.9009 37.4936 40.8349C37.966 40.4591 38.3665 40.0706 38.8312 39.7843C40.1663 38.9637 40.5668 37.7596 40.1021 36.3613C39.6092 34.8786 39.5193 33.4444 39.9892 31.9643C40.0123 31.8876 40.0123 31.8032 40.0251 31.7214C40.1432 30.9392 40.4564 30.2975 41.2087 29.909C41.6246 29.6942 42.0226 29.4233 42.3666 29.1088C42.5669 28.9248 42.7543 28.6027 42.7517 28.3445C42.744 27.3066 42.7209 26.2585 42.5849 25.2308C42.4437 24.1674 41.8069 23.3468 41.0495 22.6131C40.156 23.472 40.3948 24.423 41.0752 25.0876C41.563 25.5631 41.545 26.0284 41.4886 26.5755C41.4552 26.8797 41.45 27.1941 41.3576 27.4804C41.2755 27.7386 41.1471 28.0351 40.9417 28.1885C40.251 28.7075 39.527 29.1855 38.7927 29.6406C38.6643 29.7198 38.3485 29.6866 38.251 29.5843C38.1354 29.4591 38.0815 29.1702 38.1483 29.0117C38.328 28.5848 38.5796 28.1885 38.8107 27.7846C39.2369 27.0407 38.8004 26.4579 38.4564 25.8571C38.1791 25.374 37.7632 25.4455 37.3293 25.5861C37.2599 25.6091 37.1624 25.5861 37.0905 25.5529C36.5642 25.3228 36.1944 25.581 35.948 25.99C35.4755 26.7749 35.3035 27.4012 35.8427 28.2039C36.1842 28.7126 36.387 29.3185 36.6155 29.8962C36.8004 30.3666 36.5462 30.6503 36.0969 30.727C35.473 30.8318 35.1084 31.2178 34.7669 31.7112C34.3664 32.2915 33.8837 32.8156 33.3985 33.4087L33.3933 33.4112ZM44.5413 30.1237C44.1947 30.1544 43.9559 30.1953 43.7171 30.1902C43.1035 30.18 42.9648 30.4739 42.9623 31.0568C42.9623 31.5348 42.8031 32.0512 42.5772 32.4807C42.2768 33.0533 41.8454 33.5595 41.4706 34.0938C41.3268 34.2983 41.1779 34.5002 40.9699 34.784C41.2806 34.8121 41.4577 34.8428 41.6349 34.8428C42.2434 34.8428 42.7569 34.9476 42.9648 35.648C43.0085 35.7989 43.3294 35.9446 43.5297 35.9548C44.2434 35.9932 44.9623 35.942 45.6787 35.9804C46.1896 36.0085 46.5002 35.8909 46.5362 35.3208C46.5619 34.9271 46.7724 34.7073 47.214 34.7022C47.3398 34.7022 47.5657 34.5079 47.5709 34.3954C47.6017 33.5237 47.5863 32.652 47.5863 31.7751C47.3064 31.7317 47.0933 31.6984 46.7801 31.6473V29.5997C46.3847 29.6942 46.1126 29.7837 45.8353 29.8195C45.3321 29.8885 45.1652 30.1416 45.1908 30.6478C45.2319 31.5016 45.2217 32.3605 45.1883 33.2169C45.1806 33.4214 44.9854 33.6157 44.8776 33.8177C44.7672 33.6183 44.5695 33.4214 44.5618 33.2169C44.5284 32.2225 44.5464 31.2255 44.5464 30.1237H44.5413ZM27.2109 41.2542C27.3341 41.8012 27.4984 42.223 27.5138 42.6525C27.5549 43.7313 27.5087 44.8152 27.5344 45.894C27.5549 46.7223 28.1634 47.2744 29.0594 47.346C30.2148 47.4381 30.8695 47.0674 31.0261 46.165C31.1109 45.6665 31.0954 45.1501 31.1006 44.6414C31.1134 43.4731 31.324 43.3121 32.4536 43.6367C32.4844 43.6444 32.5255 43.6112 32.5666 43.5933C32.5666 43.0488 32.6257 42.4915 32.5538 41.9546C32.4254 41.0164 31.8811 40.5921 31.0159 40.6534C30.1891 40.7097 29.7373 41.2491 29.727 42.2026C29.7193 42.9772 29.7424 43.7543 29.7141 44.5263C29.709 44.6695 29.5139 44.8075 29.4061 44.9481C29.288 44.8127 29.1159 44.6925 29.0646 44.534C29.0055 44.3499 29.0492 44.1301 29.0492 43.9256C29.0415 43.0897 29.0594 42.2512 29.0132 41.4178C28.9978 41.1289 28.9516 40.6918 28.4484 40.8298C27.9811 40.9602 27.5267 41.1417 27.2134 41.2516L27.2109 41.2542ZM44.6055 38.9764V38.9816C45.2807 38.9816 45.9585 38.9816 46.6338 38.9816C48.2384 38.9816 48.2153 38.9816 48.2179 37.3992C48.2179 36.8623 47.9996 36.7524 47.5221 36.7575C45.843 36.778 44.1639 36.7652 42.4822 36.7652C40.8621 36.7652 40.8749 36.7652 40.9032 38.4115C40.9109 38.8358 41.0495 38.9892 41.4731 38.9816C42.5181 38.9637 43.5631 38.9764 44.608 38.9764H44.6055ZM30.5357 38.9764C31.2315 38.9764 31.9273 38.9764 32.6231 38.9764C34.2124 38.9764 34.1944 38.9764 34.1995 37.394C34.1995 36.9134 34.0583 36.7524 33.5731 36.7575C31.876 36.7805 30.1763 36.7473 28.4766 36.7703C26.6126 36.7959 26.9362 36.4507 26.8925 38.4089C26.8822 38.8333 27.044 38.9892 27.465 38.9816C28.4869 38.9637 29.5113 38.9764 30.5357 38.9739V38.9764ZM39.9301 43.0871C39.9301 43.6367 39.9301 44.1889 39.9301 44.7385C39.9301 46.2442 39.9301 46.2263 41.4706 46.234C41.9789 46.2366 42.151 46.0755 42.1407 45.5693C42.115 44.2247 42.1484 42.8775 42.1279 41.5328C42.0996 39.6385 42.4514 40.0041 40.4975 39.9479C40.0764 39.9351 39.9121 40.0885 39.9224 40.5154C39.9455 41.3718 39.9301 42.2282 39.9275 43.0845L39.9301 43.0871ZM28.8001 23.2573C28.5768 24.4741 28.718 25.6475 29.2084 26.4118C29.3367 26.6112 29.5678 26.8388 29.7835 26.8771C30.8413 27.0663 31.3162 26.6496 31.2854 25.5734C31.2726 25.1004 31.1545 24.6301 31.0852 24.1597C31.1134 24.1495 31.1417 24.1367 31.1725 24.1264C31.2931 24.3846 31.4138 24.6428 31.5371 24.9036C31.9787 24.2389 31.7912 22.9301 31.116 22.0021C30.9388 22.112 30.7617 22.2245 30.5024 22.3907V21.1713C29.3008 21.4167 28.9901 22.2961 29.5267 24.083C29.2366 23.7532 29.044 23.5385 28.8001 23.2598V23.2573ZM37.6399 51.1065C37.1418 52.2262 36.3074 52.0728 35.5166 52.0549C35.3934 52.0523 35.2701 52.0651 35.1469 52.0549C34.6976 52.014 34.6617 52.2926 34.654 52.6352C34.6488 53.0007 34.7438 53.2231 35.1674 53.2027C35.5757 53.1822 35.9865 53.2129 36.3973 53.195C36.7362 53.1822 36.8799 53.3101 36.8671 53.6552C36.8517 54.1434 36.8954 54.6368 36.8568 55.1225C36.8055 55.7872 37.2445 55.7003 37.6553 55.7054C38.0584 55.7079 38.4435 55.7565 38.3999 55.1353C38.3562 54.5115 38.3896 53.8852 38.3896 53.195C39.0341 53.195 39.5835 53.1848 40.1329 53.1976C40.4744 53.2052 40.5771 53.0672 40.6053 52.7272C40.6516 52.1827 40.459 52.0191 39.9147 52.037C39.1034 52.06 38.1894 52.3105 37.6374 51.1013L37.6399 51.1065ZM37.1701 49.9356C37.7452 50.8866 38.7901 51.2547 39.7196 50.9122C40.7876 50.5185 41.3679 49.5522 41.1933 48.4529C41.0469 47.5403 40.2562 46.8041 39.4269 46.776C39.1008 47.3562 38.6592 47.888 38.5 48.4913C38.3049 49.2352 37.9763 49.7388 37.1701 49.9356ZM46.4207 49.8896C47.481 49.3349 47.7018 48.9668 47.3963 47.9263C47.2602 47.4636 46.9547 47.006 46.6107 46.6558C45.5657 45.5898 44.4668 44.58 43.3962 43.5549C42.9161 44.1736 42.9084 44.6593 43.5014 45.2933C44.0175 45.8454 44.5413 46.3976 45.1189 46.8833C45.997 47.6247 46.5952 48.4555 46.3539 49.6749C46.3436 49.7235 46.3873 49.7822 46.4207 49.8896ZM47.1139 46.4615C47.6017 45.8812 47.6171 45.3904 47.0137 44.7436C46.4284 44.1173 45.8404 43.4808 45.1806 42.9388C44.3667 42.2691 43.9739 41.4843 44.1433 40.4336C44.1562 40.3492 44.1151 40.2546 44.0945 40.1524C43.0598 40.6355 42.9007 40.9653 43.0598 41.9623C43.2216 42.9721 44.0175 43.4936 44.6619 44.1275C45.4681 44.92 46.3 45.6895 47.1139 46.4615ZM38.8826 53.9798C38.957 55.2018 39.925 56.0019 41.1163 55.9227C42.1484 55.8511 42.9982 54.9666 42.9366 53.9798H38.8826ZM32.3381 53.9415C32.2534 54.9333 33.1109 55.8434 34.1328 55.9227C35.1931 56.0045 36.3844 55.1609 36.3921 54.2968C36.3921 54.1792 36.2073 53.9594 36.1046 53.9594C34.8465 53.9364 33.5885 53.944 32.3381 53.944V53.9415ZM44.6799 21.6238C44.7159 21.1125 44.3975 20.706 43.8506 20.5092C43.2755 20.3047 42.6953 20.4376 42.3846 20.9565C42.0893 21.4474 41.8916 22.0277 41.7812 22.5926C41.6785 23.1192 42.2383 23.5283 42.7569 23.3723C43.1471 23.2547 43.54 23.1295 43.902 22.9505C44.3949 22.7077 44.6773 22.2986 44.6799 21.6238ZM44.1921 46.4564C42.6054 48.1462 42.7363 49.2633 44.2255 49.8334C44.4001 49.1866 44.0303 48.4171 44.6594 47.8138C44.8032 49.0426 45.0222 49.7635 45.3166 49.9765C45.9405 49.4934 46.128 48.6805 45.712 48.1999C45.2217 47.6272 44.721 47.0648 44.1895 46.459L44.1921 46.4564ZM45.1985 40.0476C44.5901 40.5307 44.341 41.3181 44.721 41.7373C45.2627 42.3355 45.8738 42.8698 46.4566 43.4297C47.843 41.9393 47.8225 40.8145 46.2717 40.1805C46.0946 40.8298 46.4412 41.5916 45.8353 42.2665C45.6427 41.451 46.092 40.5691 45.1985 40.0476ZM30.659 30.1493C30.7309 29.6201 30.7719 29.096 30.8849 28.5873C30.926 28.4007 31.1391 28.2524 31.2598 28.0761C31.3702 27.915 31.5139 27.7463 31.5371 27.5673C31.5473 27.4855 31.3085 27.2912 31.1776 27.2861C30.5024 27.258 29.8246 27.258 29.1519 27.2861C29.0261 27.2912 28.8104 27.4804 28.8104 27.5878C28.8078 27.7463 28.9465 27.915 29.044 28.0684C29.1775 28.2806 29.424 28.4672 29.4548 28.687C29.555 29.39 29.7116 30.0087 30.6615 30.1467L30.659 30.1493ZM29.7835 32.6238C29.7835 33.4675 29.7655 34.2523 29.8014 35.0345C29.8091 35.1828 30.0325 35.3208 30.1583 35.464C30.2918 35.308 30.5178 35.1649 30.5409 34.9936C30.6076 34.4747 30.5845 33.9429 30.623 33.4189C30.6667 32.8284 30.3534 32.6315 29.786 32.6238H29.7835ZM39.5758 26.2687C40.7337 25.351 40.7825 25.1925 40.1329 24.5738C39.7915 24.9368 39.45 25.2998 39.0674 25.7088C39.2677 25.9287 39.4269 26.1025 39.5784 26.2661L39.5758 26.2687Z" fill="#406442"></path><path d="M37.4756 58.5865C35.5141 58.5865 33.5654 58.3615 31.6398 57.9116C28.8695 57.2623 26.9747 55.5546 25.8527 52.6864C24.0837 48.1693 23.1902 43.3249 23.1235 37.8773C23.1928 32.8719 24.0555 28.0582 25.6909 23.5667C26.9131 20.2102 29.2007 18.298 32.6847 17.7177C36.6746 17.053 40.2588 17.1655 43.6452 18.0602C46.0766 18.7019 47.8148 20.2127 48.811 22.5441C50.5954 26.7187 51.5607 31.2281 51.761 36.3281C51.9638 41.5508 51.2475 46.5715 49.63 51.2446C49.1191 52.7222 48.5388 54.3966 47.3013 55.708C46.1331 56.9453 44.626 57.6867 42.418 58.1136C40.7697 58.4306 39.1188 58.5891 37.473 58.5891L37.4756 58.5865ZM23.3802 37.8747C23.447 43.2917 24.3353 48.1053 26.0915 52.5918C27.1826 55.3757 29.0158 57.0348 31.6988 57.6611C35.2008 58.4791 38.7927 58.5456 42.3718 57.8579C44.5233 57.4438 45.9868 56.7255 47.1165 55.5291C48.3155 54.2585 48.8854 52.6097 49.3887 51.1551C50.9959 46.5102 51.7071 41.5227 51.5043 36.3307C51.3066 31.2639 50.3489 26.7852 48.5748 22.6387C47.5966 20.3508 45.9611 18.932 43.5785 18.3005C40.2305 17.416 36.6797 17.3061 32.7284 17.9631C29.3444 18.5281 27.121 20.3865 25.9349 23.6485C24.3096 28.1145 23.4495 32.8975 23.3828 37.8722L23.3802 37.8747ZM34.2766 56.0531C34.2252 56.0531 34.1739 56.0531 34.1225 56.048C33.5705 56.0046 33.0416 55.7336 32.6719 55.3016C32.3304 54.9028 32.1661 54.4145 32.2097 53.9288L32.22 53.8112H33.1058C34.0891 53.8112 35.1058 53.8086 36.1072 53.8265C36.292 53.8291 36.5231 54.1205 36.5205 54.2943C36.5154 54.6676 36.3177 55.0536 35.9582 55.3834C35.4961 55.8052 34.8645 56.0531 34.2766 56.0531ZM32.4614 54.0668C32.4614 54.4452 32.6026 54.8184 32.8696 55.1328C33.1931 55.5137 33.6578 55.754 34.143 55.7898C34.7002 55.8333 35.3395 55.5981 35.7837 55.1916C36.0892 54.913 36.2612 54.5909 36.2638 54.2892C36.2612 54.2355 36.1457 54.0949 36.0943 54.0796C35.1033 54.0617 34.0891 54.0643 33.1084 54.0643H32.4614V54.0668ZM40.9545 56.0531C40.3974 56.0531 39.8788 55.8665 39.4834 55.5214C39.052 55.1456 38.7953 54.5985 38.7568 53.9876L38.7491 53.8521H43.0599L43.0676 53.9722C43.1343 55.0229 42.246 55.9739 41.1291 56.0506C41.0701 56.0557 41.0136 56.0557 40.9571 56.0557L40.9545 56.0531ZM39.0264 54.1052C39.0854 54.5934 39.3062 55.0229 39.6528 55.3271C40.0379 55.6646 40.5566 55.8282 41.1112 55.7898C42.0483 55.7259 42.8005 54.9667 42.8134 54.1026H39.0264V54.1052ZM37.8428 55.8384C37.8068 55.8384 37.7683 55.8384 37.7324 55.8384H37.6579C37.6143 55.8384 37.5706 55.8384 37.527 55.8384C37.2856 55.8409 37.0314 55.8461 36.8697 55.6722C36.7567 55.5521 36.7105 55.3706 36.7311 55.1175C36.7516 54.844 36.7465 54.5628 36.7413 54.2892C36.7362 54.077 36.7336 53.8649 36.7413 53.6552C36.7465 53.5223 36.7233 53.4328 36.6771 53.3868C36.6284 53.3408 36.5385 53.3178 36.4024 53.3255C36.1996 53.3331 35.9993 53.3306 35.7965 53.328C35.5911 53.3255 35.3806 53.3229 35.1726 53.3331C34.9544 53.3434 34.7977 53.2974 34.6899 53.1925C34.5384 53.0468 34.523 52.8167 34.5256 52.6353C34.5282 52.4128 34.5461 52.1828 34.7028 52.0422C34.808 51.9476 34.9569 51.9092 35.1572 51.9297C35.2265 51.9348 35.2958 51.9348 35.3677 51.9297C35.4191 51.9297 35.4679 51.9271 35.5166 51.9297C35.5937 51.9297 35.6707 51.9348 35.7503 51.9374C36.4769 51.9655 37.1059 51.9885 37.5218 51.058L37.6374 50.7972L37.7555 51.0554C38.1971 52.0243 38.8698 51.9783 39.5809 51.9322C39.6913 51.9246 39.8043 51.9169 39.9121 51.9144C40.2459 51.9041 40.4539 51.9604 40.5848 52.101C40.7132 52.2339 40.7594 52.4384 40.7337 52.7452C40.7081 53.0571 40.6131 53.3485 40.1304 53.3331C39.7504 53.3229 39.3704 53.3255 38.9596 53.328C38.8158 53.328 38.6695 53.328 38.518 53.328C38.518 53.4993 38.5154 53.6655 38.5129 53.8291C38.5052 54.2816 38.4975 54.7085 38.5283 55.1328C38.5463 55.3834 38.5 55.5597 38.3896 55.6773C38.251 55.8231 38.0482 55.8409 37.8402 55.8409L37.8428 55.8384ZM37.6297 55.5802C37.6297 55.5802 37.6502 55.5802 37.6605 55.5802H37.7349C37.9301 55.5853 38.1201 55.5879 38.2048 55.4984C38.2638 55.437 38.2869 55.3194 38.2741 55.1482C38.2433 54.7136 38.251 54.2816 38.2587 53.824C38.2613 53.6195 38.2664 53.4124 38.2664 53.2002V53.0724H38.3948C38.5925 53.0724 38.7799 53.0724 38.9622 53.0724C39.3755 53.0724 39.7581 53.0698 40.1406 53.0775C40.3974 53.0826 40.4564 53.0162 40.4821 52.7247C40.5001 52.4972 40.477 52.354 40.4025 52.2774C40.3281 52.1981 40.1766 52.1623 39.925 52.1725C39.8197 52.1751 39.7119 52.1828 39.604 52.1904C38.9262 52.2339 38.1637 52.285 37.6451 51.3928C37.1521 52.2492 36.4101 52.2186 35.7451 52.1956C35.6681 52.193 35.5937 52.1904 35.5166 52.1879C35.4704 52.1879 35.4242 52.1879 35.3806 52.1879C35.301 52.1879 35.2188 52.193 35.1392 52.1853C35.016 52.1751 34.9287 52.1904 34.8799 52.2339C34.8003 52.3055 34.79 52.4742 34.7875 52.6404C34.7849 52.8321 34.8106 52.9497 34.8748 53.0085C34.9287 53.0622 35.0263 53.0852 35.1675 53.0775C35.3806 53.0673 35.5962 53.0698 35.8068 53.0724C36.0045 53.0724 36.2022 53.0775 36.3973 53.0698C36.6104 53.0622 36.7619 53.1056 36.862 53.2053C36.9621 53.305 37.0083 53.4533 37.0006 53.6629C36.9929 53.87 36.9981 54.077 37.0006 54.2841C37.0058 54.5628 37.0109 54.8516 36.9904 55.1379C36.9775 55.3143 37.0006 55.4345 37.0597 55.4984C37.1444 55.5879 37.3318 55.5879 37.527 55.5828C37.5603 55.5828 37.5963 55.5828 37.6322 55.5828L37.6297 55.5802ZM31.7014 51.7968C31.5268 51.7968 31.3625 51.7022 31.2469 51.6255C30.6924 51.2548 30.4947 50.4649 30.7976 49.8232C30.8772 49.6545 30.9748 49.4449 31.1417 49.3222C32.2765 48.4735 32.5332 47.272 32.6385 46.1012C32.7489 44.8971 33.1725 43.7697 33.894 42.7523C34.0403 42.5452 34.0686 42.2231 34.0943 41.9112C34.0994 41.8422 34.1071 41.7732 34.1122 41.7067C34.3459 39.4929 35.2137 37.5219 36.6951 35.8526C36.8029 35.7325 36.8697 35.4717 36.8312 35.3311C36.8081 35.2468 36.7875 35.1599 36.767 35.0755C36.654 34.5975 36.5462 34.1475 35.9968 33.9609C35.8376 33.9072 35.74 33.759 35.6245 33.5851C35.5988 33.5442 35.5706 33.5033 35.5397 33.4599C35.4011 33.603 35.265 33.7462 35.129 33.8893C34.7464 34.2907 34.351 34.7023 33.9325 35.0806C33.2316 35.7146 33.0313 35.7069 32.392 35.0141C32.0172 34.6077 31.7039 34.1424 31.3984 33.6899L31.2213 33.4292C30.8105 32.8284 30.392 32.4169 29.6705 32.3555C29.2905 32.3223 28.9516 31.9107 28.7616 31.5375C28.5639 31.1489 28.4253 30.6197 28.6281 30.29C28.7514 30.0906 29.0954 30.0215 29.2597 30.0139C29.9683 29.9755 30.4176 30.4127 30.8516 30.8319C30.9055 30.883 30.9568 30.9342 31.0107 30.9827C31.4395 31.3866 31.8606 31.8084 32.2688 32.2175C32.505 32.4527 32.7386 32.6878 32.9774 32.923C33.0442 32.9895 33.1212 33.0483 33.2367 33.1352C33.2778 33.1684 33.324 33.2017 33.3779 33.2426C33.5012 33.0943 33.6244 32.9486 33.7451 32.8054C34.0763 32.4143 34.387 32.0462 34.6617 31.6499C34.9852 31.1821 35.3831 30.7297 36.0763 30.6121C36.2843 30.5763 36.4384 30.4919 36.5051 30.3743C36.5667 30.2669 36.5642 30.1263 36.4974 29.9551C36.4589 29.8579 36.4204 29.7582 36.3844 29.6611C36.2022 29.1882 36.0147 28.6973 35.74 28.2858C35.1649 27.4268 35.3523 26.7519 35.8427 25.9364C36.1662 25.397 36.6309 25.2258 37.147 25.4482C37.2137 25.4763 37.2728 25.4865 37.2959 25.4763C37.6168 25.3715 38.2176 25.1798 38.5745 25.8061C38.6079 25.8649 38.6412 25.9237 38.6772 25.9799C38.993 26.5167 39.3499 27.1252 38.9288 27.8588C38.8775 27.9483 38.8261 28.0378 38.7748 28.1247C38.595 28.4315 38.4102 28.7459 38.2741 29.0731C38.2279 29.183 38.2715 29.4208 38.3537 29.5103C38.405 29.5639 38.6489 29.5946 38.7311 29.546C39.5758 29.022 40.2536 28.5618 40.8698 28.0991C41.011 27.9918 41.1368 27.7745 41.2395 27.4524C41.3063 27.2479 41.3243 27.0255 41.3448 26.7903C41.3499 26.7161 41.3576 26.6446 41.3653 26.573C41.4244 26.0336 41.4295 25.6195 40.9905 25.19C40.572 24.781 40.3435 24.2953 40.346 23.8223C40.346 23.3596 40.5566 22.9276 40.9674 22.5339L41.0572 22.447L41.1471 22.5339C41.7967 23.1628 42.5643 24.0371 42.721 25.2258C42.8622 26.2892 42.8801 27.3987 42.8878 28.3548C42.8904 28.6718 42.667 29.022 42.4591 29.2137C42.1227 29.523 41.7145 29.8042 41.2729 30.0343C40.631 30.3666 40.287 30.8958 40.1561 31.7522C40.1535 31.7778 40.1509 31.8033 40.1483 31.8289C40.1432 31.8851 40.1381 31.949 40.1175 32.013C39.6836 33.3857 39.7196 34.7994 40.2305 36.3307C40.7312 37.8287 40.2716 39.0634 38.9057 39.9019C38.5976 40.0911 38.3177 40.3288 38.0199 40.5819C37.9121 40.674 37.8017 40.7685 37.6861 40.8606C38.5642 41.9164 38.5668 43.1588 38.5719 44.3603V44.4523C38.5719 44.5443 38.5719 44.6363 38.5719 44.7284C38.5642 45.3138 38.5565 45.8685 38.9596 46.3593C39.0007 46.4105 39.1291 46.5664 38.8672 47.1953C38.7568 47.4611 38.6284 47.7219 38.5052 47.975C38.3614 48.2715 38.2125 48.5757 38.0918 48.885C37.8351 49.542 36.8748 49.9306 36.043 49.7159L35.9351 49.6877L35.9454 49.5778C35.948 49.5523 35.948 49.5241 35.9505 49.4986C35.9505 49.427 35.9557 49.3426 35.9839 49.2634C36.0995 48.9541 36.2176 48.6447 36.3357 48.3354C36.559 47.7475 36.7927 47.139 37.0032 46.5357C37.0494 46.4054 37.034 46.1983 36.9673 45.981C36.8723 45.6819 36.7619 45.3828 36.654 45.0914C36.5462 44.7974 36.4358 44.4957 36.3382 44.1915C36.2894 44.0382 36.2432 43.8848 36.197 43.7288C36.1431 43.5448 36.0866 43.3582 36.025 43.1715C36.0353 43.2712 36.0532 43.3658 36.0815 43.4579C36.2176 43.895 36.0918 44.1864 35.8401 44.5136C35.2958 45.2243 34.8132 45.866 34.3972 46.5485C34.0891 47.0521 33.912 47.5097 33.8709 47.9111C33.7631 48.9157 33.3009 49.6801 32.8619 50.2962C32.6051 50.6566 32.392 51.0222 32.2251 51.3826C32.1199 51.6076 31.9941 51.738 31.8349 51.784C31.7938 51.7942 31.7553 51.7993 31.7142 51.7993L31.7014 51.7968ZM35.5629 33.0662L35.6527 33.1787C35.7246 33.2656 35.7837 33.3551 35.8401 33.4394C35.93 33.5723 36.007 33.6874 36.0815 33.7129C36.7644 33.9456 36.9005 34.5105 37.0186 35.0116C37.0391 35.0959 37.0571 35.1777 37.0802 35.2596C37.1418 35.4845 37.0546 35.8322 36.8877 36.0188C35.4422 37.6498 34.5949 39.5696 34.3664 41.7323C34.3587 41.7962 34.3536 41.8652 34.3484 41.9317C34.3202 42.2794 34.2894 42.6373 34.102 42.9006C33.4062 43.8797 33.0005 44.9661 32.8927 46.1242C32.7849 47.295 32.5101 48.6166 31.2932 49.5267C31.1802 49.6111 31.0955 49.79 31.0287 49.9332C30.7797 50.4623 30.9363 51.1142 31.3882 51.4159C31.5473 51.5232 31.6654 51.5616 31.7502 51.5386C31.8323 51.5156 31.9068 51.4286 31.9761 51.2778C32.1481 50.9046 32.3715 50.5237 32.6385 50.1504C33.0596 49.5625 33.5012 48.8314 33.6039 47.8881C33.6501 47.4484 33.8401 46.955 34.1662 46.4207C34.5898 45.7279 35.0776 45.0786 35.6245 44.3628C35.8401 44.0816 35.93 43.8771 35.8247 43.5397C35.7451 43.284 35.74 43.0105 35.7349 42.7446C35.7349 42.6321 35.7323 42.5197 35.7246 42.4072L35.6733 41.694L35.9685 42.3458C36.1662 42.783 36.2997 43.2303 36.4307 43.6598C36.4769 43.8132 36.5231 43.9666 36.5719 44.1174C36.6669 44.4165 36.7773 44.7156 36.8851 45.007C36.9929 45.301 37.1033 45.6027 37.2009 45.9069C37.2522 46.0654 37.3241 46.3696 37.2368 46.6227C37.0237 47.2285 36.7927 47.8395 36.5667 48.43C36.4486 48.7393 36.3305 49.0487 36.215 49.358C36.2022 49.3938 36.1996 49.4423 36.197 49.496C36.9339 49.6366 37.6605 49.2583 37.8428 48.7981C37.966 48.4811 38.1175 48.1693 38.2638 47.8702C38.3845 47.6196 38.5103 47.3614 38.6181 47.1033C38.7696 46.7402 38.7722 46.5587 38.7491 46.5281C38.2895 45.9657 38.2972 45.3393 38.3049 44.7335C38.3049 44.644 38.3049 44.552 38.3049 44.4625V44.3705C38.2998 43.1204 38.2946 41.9419 37.396 40.9373L37.3062 40.8376L37.4114 40.7532C37.5603 40.6331 37.7041 40.5129 37.8428 40.3953C38.1483 40.1371 38.4359 39.8917 38.7619 39.6923C40.0148 38.9228 40.4359 37.7904 39.9789 36.4176C39.45 34.8326 39.4141 33.3678 39.8659 31.9414C39.8762 31.9056 39.8813 31.8596 39.8865 31.811C39.889 31.7803 39.8916 31.7471 39.8967 31.7164C40.038 30.7833 40.4359 30.1775 41.1471 29.8094C41.5656 29.5921 41.9584 29.3211 42.2768 29.0297C42.4462 28.8737 42.6234 28.5874 42.6208 28.3599C42.6131 27.368 42.5926 26.3122 42.4539 25.2616C42.3153 24.2032 41.6452 23.4005 41.047 22.8074C40.7466 23.127 40.5925 23.4695 40.5925 23.8249C40.5925 24.2288 40.7928 24.648 41.1599 25.0085C41.6811 25.5172 41.6734 26.0106 41.6092 26.6011C41.6015 26.6727 41.5964 26.7417 41.5887 26.8133C41.5682 27.051 41.5476 27.2964 41.4732 27.5291C41.3525 27.9074 41.201 28.1605 41.0136 28.3011C40.3923 28.7689 39.7067 29.2316 38.8569 29.7608C38.6772 29.8733 38.2895 29.8298 38.1534 29.6815C38.0045 29.5205 37.9429 29.1754 38.0276 28.9734C38.1714 28.6334 38.3614 28.3088 38.5437 27.9969C38.595 27.91 38.6464 27.8205 38.6977 27.7336C39.0443 27.1277 38.7542 26.6343 38.4487 26.1103C38.4127 26.0515 38.3794 25.9927 38.346 25.9339C38.1329 25.5607 37.8376 25.5709 37.3703 25.7217C37.2497 25.7601 37.1136 25.714 37.0417 25.6834C36.6412 25.5095 36.3203 25.6348 36.0609 26.0668C35.6116 26.8158 35.4473 27.3936 35.9505 28.1426C36.2432 28.5772 36.4358 29.0808 36.6232 29.5665C36.6617 29.6636 36.6977 29.7633 36.7362 29.8605C36.8569 30.1647 36.7978 30.3769 36.7285 30.4996C36.6206 30.6888 36.4101 30.8166 36.12 30.8651C35.5526 30.9597 35.2111 31.3074 34.8722 31.7957C34.5898 32.2021 34.274 32.5754 33.9402 32.9716C33.7939 33.1454 33.645 33.3193 33.496 33.5033L33.4165 33.6005L33.3163 33.5212C33.2239 33.4471 33.1469 33.3883 33.0801 33.3372C32.962 33.2451 32.8747 33.1812 32.7951 33.102C32.5563 32.8693 32.3227 32.6316 32.0865 32.3964C31.6808 31.9899 31.2598 31.5681 30.8336 31.1668C30.7797 31.1157 30.7257 31.0645 30.6718 31.0134C30.261 30.6146 29.8759 30.2388 29.2726 30.2669C29.0903 30.2772 28.8926 30.3488 28.8464 30.4229C28.7283 30.6146 28.7899 31.0236 28.9901 31.4224C29.1878 31.811 29.4703 32.082 29.6911 32.1024C30.5614 32.1766 31.0415 32.716 31.4318 33.286L31.609 33.5493C31.9093 33.9916 32.2174 34.4517 32.5795 34.8429C33.1212 35.4283 33.1648 35.4308 33.7579 34.894C34.1687 34.5233 34.5615 34.1117 34.939 33.7155C35.111 33.5366 35.283 33.3551 35.4576 33.1787L35.5577 33.0764L35.5629 33.0662ZM39.0264 51.1653C38.2536 51.1653 37.5064 50.7435 37.0597 50.0022L36.9698 49.8539L37.1393 49.813C37.9198 49.6238 38.1996 49.1356 38.3742 48.4607C38.4898 48.0235 38.7439 47.6222 38.993 47.2362C39.1008 47.0675 39.2138 46.8911 39.3139 46.7147L39.3524 46.6457H39.4295C40.3332 46.6789 41.1625 47.4637 41.3191 48.4326C41.504 49.5957 40.8929 50.6157 39.7632 51.0298C39.5219 51.1193 39.2728 51.1628 39.0264 51.1628V51.1653ZM37.3729 50.0124C37.9198 50.7921 38.8261 51.1065 39.6759 50.7921C40.685 50.4214 41.2318 49.5114 41.0675 48.4735C40.9391 47.6631 40.2433 46.9754 39.5013 46.909C39.4089 47.0675 39.3114 47.2234 39.2138 47.3742C38.9647 47.7602 38.7311 48.1284 38.6284 48.5246C38.4744 49.1151 38.2022 49.744 37.3781 50.0124H37.3729ZM45.3218 50.1351L45.2448 50.0789C44.7852 49.7465 44.7544 49.6954 44.5695 48.1284C44.3872 48.4275 44.3975 48.7598 44.4052 49.11C44.4103 49.3605 44.418 49.6187 44.3513 49.8641L44.3153 50.0022L44.1818 49.9511C43.4861 49.6852 43.0753 49.2992 42.9597 48.8058C42.8082 48.1539 43.1934 47.3333 44.0997 46.367L44.1972 46.2648L44.7672 46.9141C45.1241 47.3205 45.4707 47.7168 45.8148 48.113C46.0047 48.3354 46.092 48.6345 46.0612 48.9515C46.0176 49.3733 45.7762 49.7849 45.4014 50.0738L45.3244 50.1326L45.3218 50.1351ZM44.7595 47.5429L44.7903 47.7986C44.9855 49.4551 44.9983 49.5753 45.3167 49.813C45.5914 49.5727 45.7737 49.2481 45.8045 48.9259C45.8302 48.6754 45.766 48.4505 45.6196 48.2792C45.2782 47.8804 44.9315 47.4867 44.5747 47.0802L44.1921 46.6457C43.4167 47.4995 43.0855 48.2051 43.2113 48.747C43.2961 49.1202 43.6067 49.4244 44.1331 49.652C44.1587 49.4832 44.1536 49.3017 44.1485 49.1126C44.1382 48.6601 44.1254 48.1462 44.5721 47.7168L44.7595 47.5378V47.5429ZM46.3462 50.0738L46.3 49.9306C46.2897 49.8974 46.2769 49.8667 46.2666 49.8411C46.2409 49.7798 46.2153 49.721 46.2307 49.652C46.4258 48.6524 46.0715 47.8548 45.0368 46.9831C44.4694 46.5051 43.9662 45.9759 43.409 45.3828C42.7903 44.7233 42.7595 44.1711 43.2961 43.4783L43.3834 43.3658L43.4861 43.4655C43.7839 43.7518 44.0843 44.0356 44.3872 44.3194C45.1549 45.0454 45.9483 45.7969 46.7031 46.5664C47.0908 46.9626 47.3886 47.4458 47.5196 47.8906C47.8585 49.0461 47.5427 49.4474 46.4797 50.0022L46.3462 50.0738ZM46.4797 49.7005C46.4797 49.7005 46.4823 49.7031 46.4874 49.7108C47.404 49.2097 47.5427 48.8774 47.2731 47.9647C47.1524 47.5583 46.8777 47.1135 46.5182 46.7479C45.766 45.981 44.9752 45.232 44.2075 44.506C43.9405 44.2554 43.6761 44.0024 43.4116 43.7518C43.0419 44.2836 43.0958 44.6798 43.5939 45.2115C44.1433 45.7995 44.644 46.3236 45.1986 46.7914C45.938 47.4151 46.7519 48.3099 46.4772 49.7056L46.4797 49.7005ZM29.3881 47.4893C29.2803 47.4893 29.1673 47.4842 29.0492 47.4765C28.071 47.3998 27.4265 46.7811 27.406 45.8992C27.3957 45.4084 27.3983 44.9073 27.4009 44.4242C27.4034 43.8439 27.4086 43.2457 27.3855 42.6577C27.3752 42.3842 27.3007 42.1106 27.216 41.7937C27.1724 41.6352 27.1287 41.4664 27.0876 41.2849L27.062 41.175L27.1698 41.1367C27.2571 41.106 27.3547 41.0702 27.4625 41.0319C27.7346 40.9322 28.071 40.8069 28.4125 40.7123C28.6102 40.6586 28.7719 40.674 28.8951 40.7634C29.1134 40.9194 29.1313 41.2415 29.1416 41.4153C29.175 42.0186 29.175 42.6347 29.175 43.2278C29.175 43.4604 29.175 43.6956 29.175 43.9282C29.175 43.9947 29.1724 44.0612 29.1673 44.1276C29.1596 44.2631 29.1519 44.3909 29.1853 44.4957C29.2109 44.575 29.2905 44.6517 29.3753 44.736C29.383 44.7437 29.3932 44.7539 29.4009 44.7616C29.4112 44.7514 29.4215 44.7412 29.4317 44.7284C29.4959 44.6619 29.5832 44.5724 29.5858 44.5239C29.6063 44.0305 29.6038 43.5269 29.6012 43.0386C29.6012 42.76 29.5986 42.4813 29.6012 42.2027C29.6089 41.1852 30.1096 40.5896 31.0082 40.5282C31.971 40.4618 32.5461 40.9501 32.6822 41.9394C32.7335 42.3203 32.7207 42.7114 32.7078 43.0897C32.7027 43.2585 32.6976 43.4272 32.6976 43.5959V43.6828L32.618 43.7161C32.618 43.7161 32.6 43.7263 32.5923 43.7288C32.5512 43.7518 32.4922 43.7825 32.4203 43.7621C31.8631 43.601 31.5781 43.578 31.4395 43.6828C31.2983 43.7876 31.2392 44.0663 31.2341 44.644V44.9048C31.2315 45.3266 31.229 45.7637 31.1571 46.1855C31.0056 47.0598 30.4279 47.4867 29.3932 47.4867L29.3881 47.4893ZM27.3624 41.3386C27.3957 41.4767 27.4291 41.6045 27.4625 41.7272C27.5524 42.0595 27.6294 42.3458 27.6422 42.6475C27.6628 43.2406 27.6602 43.8413 27.6576 44.4242C27.6551 44.9048 27.6525 45.4033 27.6628 45.8915C27.6807 46.6431 28.2199 47.1518 29.0697 47.2183C30.1763 47.3052 30.7566 46.9627 30.8978 46.1421C30.9671 45.7407 30.9697 45.3138 30.9697 44.9022V44.6389C30.9774 44.0433 31.0313 43.6598 31.2803 43.4757C31.5242 43.2968 31.9042 43.3505 32.4357 43.5013C32.4357 43.3607 32.4408 43.2201 32.4459 43.0821C32.4588 42.714 32.4716 42.3356 32.4228 41.9752C32.3073 41.129 31.8349 40.7276 31.021 40.7839C30.0659 40.8504 29.8579 41.5943 29.8528 42.2052C29.8528 42.4813 29.8528 42.76 29.8528 43.0361C29.8528 43.5269 29.8579 44.033 29.8374 44.5315C29.8323 44.6798 29.7193 44.7948 29.6115 44.9048C29.573 44.9457 29.5319 44.984 29.5011 45.0249L29.4061 45.1502L29.3034 45.03C29.27 44.9917 29.2315 44.9533 29.1904 44.915C29.0877 44.8153 28.9824 44.7105 28.9362 44.5724C28.8874 44.4216 28.8977 44.2631 28.9054 44.1097C28.908 44.0484 28.9131 43.987 28.9131 43.9282C28.9131 43.693 28.9131 43.4604 28.9131 43.2252C28.9131 42.6347 28.9131 42.0237 28.8797 41.4281C28.872 41.3054 28.8592 41.0523 28.7411 40.9679C28.6846 40.927 28.5947 40.9245 28.4766 40.9552C28.1454 41.0472 27.8142 41.1699 27.5472 41.267C27.4805 41.29 27.4188 41.3156 27.3598 41.3361L27.3624 41.3386ZM47.1242 46.6482L47.024 46.5536C46.7827 46.3236 46.5413 46.096 46.2974 45.8685C45.7275 45.3317 45.1395 44.7769 44.5721 44.2197C44.4489 44.0995 44.3231 43.9845 44.1947 43.8669C43.6427 43.3633 43.0701 42.8443 42.9315 41.9828C42.7595 40.904 42.9674 40.5385 44.0381 40.0374L44.1895 39.9658L44.2204 40.1295C44.2255 40.1601 44.2332 40.1882 44.2409 40.2164C44.2614 40.2905 44.282 40.3698 44.2691 40.4541C44.1151 41.4 44.4309 42.1567 45.2627 42.8392C45.8969 43.3607 46.4695 43.9742 47.024 44.5648L47.1088 44.6542C47.7326 45.3189 47.7635 45.8839 47.214 46.5408L47.1267 46.6457L47.1242 46.6482ZM44.0073 40.3365C43.1292 40.7711 43.0496 41.0779 43.1857 41.9419C43.3089 42.7139 43.8224 43.1818 44.3667 43.6777C44.4976 43.7953 44.626 43.9129 44.7518 44.0356C45.3167 44.5929 45.9046 45.1476 46.4746 45.6819C46.6826 45.8787 46.8931 46.0756 47.0985 46.2724C47.4733 45.7688 47.4194 45.3675 46.9188 44.8306L46.834 44.7412C46.2872 44.1557 45.7198 43.5499 45.0984 43.0386C44.1895 42.2921 43.8481 41.4588 44.015 40.4132C44.0175 40.3928 44.015 40.3672 44.0073 40.3365ZM41.486 46.3645H41.4167C39.8659 46.3568 39.8043 46.2954 39.8043 44.7412V43.0897C39.8043 42.8597 39.8043 42.627 39.8069 42.397C39.812 41.7834 39.8146 41.1494 39.7992 40.5257C39.7915 40.2726 39.8428 40.0988 39.9609 39.9837C40.0765 39.8687 40.2536 39.8176 40.5052 39.8252C40.8236 39.8355 41.0778 39.8329 41.2857 39.8304C41.7556 39.8252 41.9918 39.8252 42.1356 39.971C42.2793 40.1167 42.2742 40.3493 42.2665 40.812C42.2639 41.0063 42.2588 41.244 42.2614 41.5355C42.2716 42.1746 42.2691 42.8213 42.2665 43.4502C42.2639 44.1455 42.2614 44.8664 42.2742 45.572C42.2794 45.8685 42.2254 46.0551 42.0996 46.183C41.9738 46.3108 41.7838 46.367 41.486 46.367V46.3645ZM40.0611 43.0897V44.7412C40.0611 45.4263 40.0611 45.8046 40.21 45.9529C40.3589 46.1012 40.7337 46.1037 41.4167 46.1088H41.4732C41.6965 46.1088 41.8403 46.0756 41.9148 46.0015C41.9867 45.9273 42.02 45.7918 42.0149 45.5745C42.0021 44.8664 42.0046 44.1455 42.0072 43.4476C42.0072 42.8213 42.0123 42.1746 42.0021 41.538C41.9969 41.2415 42.0021 41.0012 42.0072 40.8043C42.0149 40.4516 42.0175 40.2164 41.9507 40.1473C41.884 40.0783 41.6452 40.0809 41.2857 40.0834C41.0778 40.0834 40.8185 40.086 40.495 40.0783C40.3178 40.0707 40.1997 40.1013 40.1381 40.1627C40.0765 40.224 40.0482 40.3391 40.0534 40.5155C40.0713 41.1418 40.0662 41.7783 40.0611 42.3944C40.0611 42.6245 40.0585 42.8571 40.0585 43.0872L40.0611 43.0897ZM46.4618 43.6112L46.3668 43.5192C46.1922 43.3505 46.015 43.1843 45.8379 43.0182C45.4296 42.6373 45.0086 42.241 44.626 41.8192C44.4668 41.6428 44.3949 41.4076 44.4155 41.1392C44.4514 40.7174 44.7184 40.2598 45.119 39.9454L45.1883 39.8917L45.2653 39.9352C45.9329 40.3263 45.9226 40.9066 45.9123 41.469C45.9097 41.6224 45.9072 41.7783 45.9174 41.9343C46.0972 41.607 46.092 41.2645 46.0869 40.904C46.0843 40.6535 46.0818 40.3928 46.1485 40.1448L46.187 40.0042L46.3205 40.0579C47.0343 40.3493 47.4554 40.7532 47.5658 41.2568C47.7044 41.8806 47.3629 42.6398 46.5516 43.5115L46.4618 43.6087V43.6112ZM45.2114 40.2036C44.9033 40.472 44.7005 40.8325 44.6748 41.1622C44.6645 41.3003 44.6799 41.4946 44.8186 41.6505C45.1934 42.0646 45.6119 42.4558 46.015 42.8341C46.1614 42.9721 46.3077 43.1076 46.4515 43.2457C47.1396 42.4813 47.4297 41.832 47.3167 41.3156C47.232 40.9322 46.9111 40.6101 46.3668 40.3595C46.3411 40.5308 46.3436 40.7123 46.3462 40.9015C46.3514 41.3591 46.3591 41.878 45.9329 42.3509L45.7685 42.535L45.7121 42.2947C45.6453 42.0161 45.6504 41.7349 45.6556 41.4639C45.6658 40.9577 45.6735 40.5155 45.2114 40.2036ZM46.6466 39.1146H46.6363L44.4797 39.1069C44.2229 39.1069 43.9687 39.1069 43.712 39.1069C42.9803 39.1043 42.2203 39.1018 41.4757 39.1146C41.2216 39.1222 41.0521 39.0686 40.9417 38.9535C40.8313 38.841 40.7799 38.6774 40.7774 38.4192V38.3783C40.762 37.5398 40.7543 37.1206 40.9905 36.8803C41.2267 36.6426 41.6478 36.6426 42.4847 36.6426C42.9572 36.6426 43.4347 36.6426 43.9071 36.6426C45.0907 36.6426 46.318 36.6477 47.5221 36.6323C47.7609 36.6298 48.0048 36.6477 48.1665 36.8087C48.2924 36.9314 48.3488 37.1206 48.3488 37.4018V37.4657C48.3488 39.0481 48.2847 39.1146 46.6466 39.1146ZM42.5335 36.8982H42.4822C41.7402 36.8982 41.332 36.8982 41.1702 37.0618C41.011 37.2229 41.0162 37.6344 41.029 38.3758V38.4167C41.0341 38.6007 41.0624 38.7158 41.1214 38.7771C41.1805 38.8385 41.2883 38.8666 41.468 38.8615C42.2152 38.8487 42.9751 38.8513 43.7094 38.8538C44.0073 38.8538 44.3051 38.8538 44.6055 38.8538L46.6338 38.8615C47.3629 38.8615 47.7686 38.8615 47.9303 38.7081C48.0895 38.5547 48.0895 38.1687 48.0895 37.4708V37.4069C48.0895 37.1998 48.0536 37.0669 47.9817 36.9953C47.9072 36.9212 47.7737 36.888 47.5221 36.8931C46.3154 36.9084 45.0907 36.9059 43.9046 36.9033C43.4475 36.9033 42.9905 36.9033 42.531 36.9033L42.5335 36.8982ZM27.442 39.1146C27.2032 39.1146 27.0389 39.0634 26.9285 38.951C26.8129 38.8359 26.7616 38.6646 26.7667 38.4116C26.7744 38.1201 26.7718 37.8798 26.7718 37.683C26.7693 37.1794 26.7667 36.9238 26.9208 36.7755C27.0697 36.6298 27.3059 36.6349 27.7783 36.6426C27.9683 36.6477 28.1994 36.6502 28.4792 36.6477C29.3367 36.6349 30.2097 36.6374 31.0518 36.64C31.8785 36.6426 32.7335 36.6451 33.5756 36.6349C33.8504 36.6349 34.0378 36.6835 34.1585 36.801C34.2817 36.9238 34.333 37.1027 34.333 37.3992V37.4529C34.3279 39.0455 34.2637 39.1069 32.6282 39.1069H30.5409C30.22 39.1069 29.9016 39.1069 29.5807 39.1069C28.89 39.1069 28.1763 39.1043 27.4728 39.1146C27.4625 39.1146 27.4522 39.1146 27.442 39.1146ZM27.4907 36.8931C27.2828 36.8931 27.1518 36.9059 27.1005 36.957C27.026 37.0311 27.026 37.2765 27.0286 37.6804C27.0286 37.8798 27.0312 38.1227 27.0235 38.4167C27.0183 38.5931 27.0466 38.7081 27.1108 38.7695C27.1749 38.8308 27.2905 38.8615 27.4676 38.8564C28.1711 38.8436 28.8874 38.8462 29.5807 38.8487C29.9016 38.8487 30.22 38.8487 30.5383 38.8487H32.6257C33.3523 38.8487 33.7528 38.8487 33.912 38.6928C34.0712 38.5394 34.0712 38.1508 34.0737 37.4478V37.3941C34.0737 37.1743 34.0455 37.0465 33.9762 36.98C33.9094 36.9135 33.7887 36.8803 33.5782 36.888C32.7361 36.8982 31.8785 36.8956 31.0518 36.8931C30.2097 36.8931 29.3393 36.888 28.4843 36.9007C28.1994 36.9033 27.9657 36.9007 27.7732 36.8956C27.6679 36.8956 27.5729 36.8905 27.4907 36.8905V36.8931ZM45.8096 36.1159C45.7634 36.1159 45.7198 36.1159 45.6735 36.1108C45.3192 36.0929 44.9572 36.0955 44.6055 36.098C44.2512 36.1006 43.8866 36.1057 43.5271 36.0853C43.2986 36.075 42.9109 35.9089 42.8442 35.6865C42.667 35.0908 42.2665 34.9732 41.6375 34.9732C41.5142 34.9732 41.3936 34.9605 41.2421 34.9426C41.1599 34.9323 41.0675 34.9221 40.9597 34.9144L40.7363 34.894L41.0572 34.4517C41.1728 34.2932 41.2703 34.1578 41.3679 34.0223C41.4783 33.8638 41.5938 33.7104 41.7094 33.5544C41.979 33.194 42.2588 32.8208 42.4668 32.4245C42.7004 31.9772 42.8365 31.4812 42.8365 31.0594C42.8365 30.7757 42.8647 30.4612 43.0676 30.2644C43.2088 30.1263 43.4244 30.0599 43.7223 30.065C43.8737 30.065 44.0227 30.0522 44.2127 30.0318C44.3102 30.0215 44.4155 30.0088 44.5336 30.0011L44.6722 29.9883V30.1263C44.6722 30.4203 44.6722 30.7092 44.6722 30.9904C44.6697 31.7624 44.6645 32.491 44.6902 33.217C44.6928 33.3193 44.7775 33.442 44.8622 33.5596C44.8674 33.5672 44.8725 33.5749 44.8776 33.5826C44.8828 33.5749 44.8879 33.5672 44.893 33.5621C44.9752 33.4445 45.0573 33.3193 45.0625 33.217C45.1036 32.2584 45.1036 31.4224 45.0676 30.6606C45.0394 30.0701 45.273 29.7736 45.825 29.6994C46.0022 29.6764 46.1845 29.6279 46.3976 29.5716C46.508 29.5435 46.6261 29.5128 46.7596 29.4796L46.9188 29.4412V31.5426L47.7249 31.6704V32.399C47.7275 33.056 47.7301 33.736 47.7095 34.4032C47.7018 34.5975 47.4066 34.8326 47.2269 34.8352C46.8674 34.8378 46.698 34.9911 46.6774 35.3337C46.6338 35.9932 46.2384 36.1159 45.8225 36.1159H45.8096ZM45.0137 35.8424C45.2371 35.8424 45.463 35.845 45.6864 35.8577C46.2076 35.8859 46.3822 35.7529 46.4078 35.3184C46.4386 34.848 46.7236 34.5847 47.2115 34.5796C47.2705 34.5796 47.4271 34.4492 47.44 34.3904C47.4631 33.7334 47.4605 33.056 47.4579 32.399V31.8877L46.6492 31.7599V29.7659C46.5799 29.7838 46.5131 29.8017 46.4515 29.817C46.2332 29.8733 46.0433 29.9244 45.8481 29.95C45.4322 30.0062 45.291 30.1877 45.3141 30.6453C45.3526 31.4148 45.35 32.2584 45.3115 33.2247C45.3038 33.4011 45.1986 33.5545 45.0984 33.7027C45.0573 33.7615 45.0163 33.8203 44.9855 33.8791L44.8725 34.0862L44.7595 33.8817C44.7261 33.8229 44.6851 33.7641 44.644 33.7053C44.5413 33.557 44.4335 33.4011 44.4283 33.2247C44.4052 32.4936 44.4078 31.7624 44.4103 30.9878C44.4103 30.7527 44.4103 30.5124 44.4103 30.2669C44.3487 30.2721 44.2897 30.2797 44.2358 30.2848C44.0432 30.3053 43.8789 30.3257 43.712 30.3206C43.4809 30.3155 43.332 30.359 43.2421 30.4459C43.1369 30.5482 43.0907 30.7373 43.0881 31.0594C43.0881 31.5272 42.9443 32.0539 42.6876 32.5421C42.4693 32.9563 42.1844 33.3372 41.9096 33.7078C41.7967 33.8612 41.6811 34.0146 41.5707 34.168C41.4732 34.306 41.3756 34.4415 41.2575 34.6L41.1984 34.6818C41.2216 34.6818 41.2421 34.6869 41.2626 34.6895C41.4141 34.7074 41.5219 34.7176 41.6298 34.7176C42.246 34.7176 42.8493 34.8275 43.083 35.6149C43.1035 35.6839 43.3474 35.822 43.5323 35.8322C43.884 35.8501 44.246 35.8475 44.5952 35.845C44.7313 35.845 44.8699 35.845 45.0086 35.845L45.0137 35.8424ZM30.1609 35.6609L30.0633 35.5484C30.0274 35.5075 29.9812 35.4666 29.935 35.4257C29.8092 35.3132 29.6808 35.1956 29.6757 35.0423C29.65 34.462 29.6525 33.8842 29.6551 33.2758C29.6551 33.0636 29.6551 32.8463 29.6551 32.6265V32.4961H29.7861C30.1609 32.5038 30.4074 32.5881 30.5666 32.7594C30.7103 32.9154 30.7694 33.1352 30.7489 33.4292C30.7334 33.6388 30.7283 33.8484 30.7232 34.0581C30.7155 34.3699 30.7078 34.6946 30.6667 35.0116C30.6462 35.1726 30.5152 35.2953 30.3894 35.4129C30.3432 35.4564 30.2944 35.5024 30.2559 35.5459L30.1583 35.6583L30.1609 35.6609ZM29.9144 32.7594C29.9144 32.9332 29.9144 33.1071 29.9144 33.2784C29.9119 33.8842 29.9067 34.4569 29.9324 35.032C29.9324 35.0806 30.0402 35.1752 30.1096 35.2365C30.1275 35.2519 30.1429 35.2672 30.1609 35.2826C30.1789 35.2647 30.1994 35.2468 30.2174 35.2289C30.3072 35.1471 30.4074 35.0525 30.4151 34.9809C30.4562 34.6767 30.4639 34.3597 30.469 34.0529C30.4741 33.8382 30.4793 33.626 30.4947 33.4113C30.5101 33.1889 30.4741 33.0329 30.3791 32.9307C30.2893 32.8336 30.1378 32.7773 29.9144 32.7594ZM30.772 30.2951L30.6436 30.2772C29.614 30.1263 29.4343 29.4489 29.3265 28.7076C29.3111 28.6002 29.2161 28.4877 29.1134 28.3701C29.0492 28.296 28.985 28.2218 28.9337 28.1375C28.9157 28.1094 28.8951 28.0812 28.8772 28.0506C28.7822 27.9125 28.6769 27.754 28.6795 27.5853C28.682 27.3961 28.9645 27.1661 29.1442 27.1584C29.8143 27.1277 30.4998 27.1277 31.1828 27.1584C31.3342 27.1661 31.514 27.3016 31.5935 27.3961C31.65 27.4626 31.6731 27.524 31.6654 27.5828C31.6423 27.7617 31.5268 27.9202 31.4267 28.0608L31.3676 28.1452C31.3188 28.2167 31.2598 28.2806 31.2007 28.3446C31.1134 28.4391 31.0313 28.5261 31.0133 28.6104C30.9337 28.9683 30.8926 29.3288 30.8464 29.7097C30.8284 29.8605 30.8105 30.0113 30.7899 30.1621L30.772 30.29V30.2951ZM30.1763 27.3936C29.8348 27.3936 29.4934 27.4012 29.157 27.4166C29.098 27.4191 28.9516 27.5418 28.9362 27.5981C28.9362 27.6799 29.0158 27.8026 29.0903 27.91C29.1108 27.9406 29.1313 27.9713 29.1519 28.002C29.1955 28.0685 29.2495 28.1349 29.3111 28.204C29.4317 28.3446 29.5575 28.4903 29.5832 28.6718C29.6757 29.3262 29.8117 29.8426 30.5537 30.0011C30.5666 29.8937 30.5794 29.7889 30.5922 29.6841C30.6359 29.3134 30.6821 28.93 30.7643 28.5618C30.7976 28.4085 30.908 28.2909 31.0159 28.1758C31.0698 28.117 31.1211 28.0634 31.1596 28.0071L31.2213 27.9176C31.3034 27.8026 31.3882 27.685 31.4113 27.5751C31.3727 27.5188 31.2341 27.4191 31.1776 27.4166C30.8464 27.4012 30.5126 27.3961 30.1814 27.3961L30.1763 27.3936ZM30.2379 27.0536C30.0941 27.0536 29.935 27.0382 29.7629 27.0076C29.4908 26.959 29.2366 26.6957 29.1005 26.4861C28.5947 25.6961 28.4381 24.5125 28.6743 23.2395L28.7231 22.9787L29.2649 23.5922C29.0749 22.7614 29.1108 22.1658 29.3676 21.7389C29.5807 21.381 29.9452 21.156 30.4793 21.0461L30.6333 21.0154V22.1581L31.1519 21.8309L31.2238 21.928C31.9299 22.8969 32.1199 24.2646 31.6475 24.9752L31.5217 25.167L31.3188 24.7349C31.3676 25.011 31.4113 25.2922 31.419 25.5734C31.4369 26.1614 31.3086 26.5628 31.0287 26.8056C30.8336 26.9718 30.5743 27.0536 30.2405 27.0536H30.2379ZM28.8849 23.5488C28.7308 24.6455 28.89 25.6757 29.3188 26.348C29.4343 26.527 29.6397 26.7264 29.8092 26.757C30.2995 26.844 30.6436 26.7979 30.8593 26.6113C31.0775 26.4247 31.1751 26.0873 31.1622 25.5811C31.1519 25.2641 31.0955 24.9395 31.039 24.625C31.0133 24.4768 30.9851 24.3285 30.9645 24.1828L30.9491 24.0831L31.2418 23.968L31.5448 24.6148C31.7861 23.9757 31.5987 22.9506 31.0826 22.1786L30.3766 22.6259V21.335C30.0017 21.4372 29.7424 21.6136 29.5884 21.8718C29.3239 22.3115 29.3444 23.0247 29.6525 24.0498L29.8194 24.6097L28.8849 23.5513V23.5488ZM39.5655 26.4452L38.8954 25.7115L40.1304 24.3949L40.2254 24.4844C40.5309 24.7733 40.6952 24.9778 40.685 25.2155C40.6721 25.5223 40.3717 25.8061 39.6605 26.371L39.5655 26.4452ZM39.2446 25.714L39.5938 26.0975C40.1406 25.6604 40.4179 25.397 40.4282 25.2053C40.4333 25.0826 40.3281 24.9446 40.1406 24.7605L39.2446 25.714ZM42.531 23.5386C42.305 23.5386 42.0817 23.4568 41.9096 23.3034C41.6965 23.1116 41.6041 22.8458 41.658 22.5748C41.7787 21.9485 41.9944 21.3708 42.2768 20.8978C42.6054 20.3482 43.2267 20.1565 43.8969 20.3968C44.5053 20.6141 44.8494 21.0768 44.8109 21.6341C44.8057 22.3217 44.5285 22.7921 43.961 23.0707C43.5785 23.2599 43.16 23.3903 42.7954 23.5002C42.7081 23.5258 42.6183 23.5386 42.5284 23.5386H42.531ZM43.35 20.5502C42.9905 20.5502 42.6824 20.7163 42.4976 21.0256C42.2306 21.473 42.0277 22.0226 41.9122 22.6208C41.8763 22.8023 41.9404 22.9813 42.0842 23.1116C42.2562 23.2676 42.5027 23.3213 42.7261 23.2548C43.0804 23.1474 43.4861 23.0196 43.8506 22.8407C44.3308 22.6055 44.5541 22.2195 44.5567 21.6264V21.6187C44.5875 21.1739 44.3153 20.8135 43.8121 20.6345C43.6529 20.5783 43.4989 20.5502 43.3526 20.5502H43.35Z" fill="white"></path><path d="M19.7729 36.3589C19.9193 36.1927 20.0399 35.9933 20.2171 35.8681C20.8256 35.436 21.7499 35.7888 21.8217 36.5302C21.8936 37.269 21.8217 38.0205 21.814 38.767C21.1927 38.8104 20.5714 38.8667 19.9501 38.8948C19.4597 38.9178 18.9693 38.8948 18.4815 38.9229C18.0758 38.9459 17.8653 38.8258 17.891 38.381C17.9166 37.9362 17.8935 37.4862 17.9089 37.0389C17.9243 36.5634 17.9372 36.0035 18.5123 35.9115C18.9051 35.8476 19.3441 36.0496 19.7601 36.1339C19.7652 36.2081 19.7703 36.2822 19.7755 36.3589H19.7729ZM21.357 37.4786C21.3339 37.2971 21.3673 37.0747 21.2723 36.9443C21.1337 36.7551 20.8975 36.502 20.7152 36.5148C20.4969 36.5276 20.2582 36.7577 20.1015 36.9545C20.004 37.0747 20.0476 37.3073 20.0271 37.4888C19.9783 37.9515 20.1015 38.1944 20.6535 38.1867C21.1876 38.179 21.4264 38.0256 21.3519 37.4811L21.357 37.4786ZM19.5367 37.453C19.5162 37.0568 19.5932 36.5429 18.9975 36.5455C18.3505 36.5481 18.4096 37.0874 18.3839 37.5399C18.3608 37.9489 18.4404 38.1688 18.941 38.1816C19.5316 38.1969 19.5881 37.9004 19.5367 37.4505V37.453Z" fill="white"></path><path d="M33.3959 61.3245C33.3343 60.7774 33.134 60.2968 33.2727 59.9491C33.514 59.3356 34.1662 59.3203 34.7567 59.3612C35.3164 59.3995 35.8864 59.5606 36.0096 60.1485C36.0841 60.5039 35.8427 60.9257 35.7066 61.4574C36.2509 62.1476 36.2818 62.7663 35.6656 63.2673C35.0494 63.7684 33.6758 63.661 33.17 63.0705C32.7001 62.5208 32.8414 61.8153 33.3985 61.3219L33.3959 61.3245ZM34.4486 61.6006C34.0018 61.6031 33.6604 61.7693 33.6321 62.2831C33.609 62.7151 33.9736 63.0168 34.4948 63.027C34.9929 63.0372 35.414 62.71 35.3729 62.301C35.319 61.7744 34.9467 61.6057 34.4486 61.6006ZM34.6745 61.3398C34.9801 60.9282 35.2881 60.6981 35.3087 60.4451C35.3446 59.9926 34.9544 59.8699 34.5513 59.8776C34.1533 59.8852 33.8093 60.0693 33.9068 60.4757C33.971 60.7467 34.3125 60.9512 34.6745 61.3398Z" fill="white"></path><path d="M45.843 60.0999C46.7108 60.555 46.9727 61.1864 46.5901 61.8306C46.1588 62.5592 44.7698 62.9043 44.0663 62.4595C43.4552 62.0709 43.3911 61.3526 43.902 60.5933C43.1394 59.8469 43.047 59.5069 43.4706 58.9879C43.9148 58.4434 45.0959 58.221 45.6761 58.5712C46.1614 58.8652 46.2127 59.2921 45.843 60.0999ZM44.893 62.0709C45.5785 62.0658 46.0073 61.7386 45.9945 61.3168C45.9791 60.8515 45.7043 60.6291 45.2448 60.6266C44.6748 60.6214 44.2358 60.9563 44.2717 61.4011C44.3076 61.8664 44.6029 62.0684 44.8956 62.0709H44.893ZM44.4463 60.2175C45.0214 60.0872 45.4245 59.9849 45.3988 59.4711C45.3783 59.0723 45.0933 58.901 44.7184 58.9342C44.3256 58.9675 43.9379 59.1311 43.9995 59.5861C44.0329 59.8315 44.3179 60.0463 44.4463 60.2175Z" fill="white"></path><path d="M48.2744 19.4739C48.1229 19.2847 47.9971 19.1262 47.8199 18.9013C48.8803 18.0909 49.9278 17.2933 51.0344 16.4497C51.4632 17.03 51.8791 17.5541 52.2488 18.1088C52.521 18.5204 52.6211 18.9805 52.2976 19.4253C51.9536 19.8931 51.4914 19.9366 51.1166 19.7858C50.6801 20.3533 50.2744 20.8774 49.8226 21.4628C49.5966 21.1943 49.458 21.0282 49.3245 20.8697C50.1307 19.9545 50.2231 19.1714 49.6018 18.5204C49.3835 18.6763 49.1576 18.8374 48.9317 18.9984C48.7186 19.1518 48.5055 19.3052 48.2744 19.4739ZM50.1024 18.1395C50.3746 18.482 50.5517 18.7965 50.8136 19.001C50.9779 19.1288 51.3656 19.2055 51.4837 19.1032C51.6506 18.9626 51.779 18.592 51.7071 18.4002C51.5736 18.0449 51.2835 17.7483 51.0318 17.3905C50.6852 17.6665 50.4234 17.8787 50.0999 18.1369L50.1024 18.1395Z" fill="white"></path><path d="M23.3725 26.8236C23.2878 27.0895 23.2313 27.2761 23.1517 27.5292C21.8654 27.1483 20.6202 26.7802 19.321 26.3967C19.4956 25.7857 19.6394 25.2182 19.8243 24.6635C19.9963 24.1497 20.2351 23.664 20.8949 23.6435C21.5214 23.6256 21.8757 23.963 21.9809 24.4334H24.0709C23.9733 24.7785 23.9168 24.9779 23.8449 25.2233C23.5009 25.1415 23.2082 25.0597 22.9129 25.0035C22.5304 24.9319 22.2403 25.0444 22.058 25.4202C21.6754 26.2075 21.7293 26.343 22.592 26.5884C22.8256 26.6549 23.0567 26.729 23.3725 26.8236ZM20.0605 25.8088C20.4661 25.9366 20.8025 26.0414 21.203 26.1666C21.3185 25.7653 21.4854 25.4227 21.4906 25.0776C21.4931 24.8578 21.2954 24.5076 21.1131 24.4488C20.9308 24.39 20.5663 24.5664 20.443 24.7479C20.2505 25.0342 20.194 25.4125 20.0605 25.8088Z" fill="white"></path><path d="M54.159 35.7043C54.046 35.9344 53.9459 36.1721 53.8175 36.3945C53.7277 36.5479 53.5608 36.6655 53.494 36.8266C53.2758 37.3609 53.4889 38.0511 53.8817 38.1584C54.2848 38.2684 54.5749 37.9539 54.729 37.2484C54.7932 36.9518 54.842 36.6451 54.9472 36.3613C55.1783 35.7452 55.7431 35.5075 56.3414 35.7376C56.8754 35.9446 57.2015 36.6425 57.1398 37.4503C57.0859 38.1789 56.7855 38.5521 55.9254 38.7541C56.0615 38.4371 56.1539 38.23 56.2438 38.0204C56.3593 37.752 56.5878 37.4657 56.5545 37.2177C56.5134 36.9288 56.2412 36.6732 56.0692 36.4022C55.8664 36.6195 55.5994 36.8036 55.4787 37.0592C55.3169 37.4018 55.2861 37.8031 55.1706 38.1712C55.0191 38.6493 54.6776 38.9228 54.1718 38.933C53.6789 38.9433 53.3015 38.7081 53.0986 38.2556C52.7905 37.5705 52.7443 36.8598 53.1449 36.2079C53.3169 35.9267 53.6506 35.7452 53.9125 35.5203C53.9947 35.5816 54.0768 35.643 54.1616 35.7043H54.159Z" fill="white"></path><path d="M48.0484 14.3791C47.8533 14.4149 47.6351 14.5274 47.4708 14.4712C46.9521 14.2973 46.454 14.0621 45.8943 13.8269C45.7557 14.1388 45.635 14.4072 45.4887 14.7345C45.9714 14.939 46.4027 15.1128 46.8238 15.3045C47.1883 15.4707 47.1832 15.4784 46.9598 15.9845C46.4181 15.78 45.8712 15.573 45.3012 15.3557C45.2191 15.4707 45.1344 15.5576 45.0881 15.6624C44.84 16.2061 45.0009 16.5912 45.5708 16.8179C45.8353 16.9227 46.0946 17.0454 46.3642 17.1426C46.7339 17.2729 46.8109 17.4647 46.4771 17.8098C45.6222 17.457 44.7467 17.094 43.8224 16.7131C44.3539 15.4579 44.8596 14.2641 45.3911 13.0063C46.3026 13.3872 47.1575 13.7451 48.0151 14.103L48.0484 14.3842V14.3791Z" fill="white"></path><path d="M25.9836 19.3973C26.0478 19.5685 26.2198 19.7935 26.1633 19.906C25.7756 20.6652 25.3417 21.4015 24.8899 22.2067C23.714 21.5549 22.5792 20.926 21.3699 20.2562C21.8474 19.3973 22.3044 18.569 22.7614 17.7458C23.2184 17.8149 23.2955 18.0066 23.0721 18.3747C22.7897 18.8425 22.5406 19.3308 22.2839 19.7986C23.0105 20.4428 23.0567 20.4352 23.4983 19.6606C23.6678 19.3615 23.85 19.0701 24.0529 18.7301C24.2403 18.8374 24.3892 18.9218 24.5535 19.0164C24.2506 19.5711 23.9681 20.0849 23.6601 20.6473C24.04 20.8621 24.3687 21.0461 24.7461 21.2609C25.1209 20.6141 25.4624 20.021 25.8065 19.4305C25.8681 19.4203 25.9271 19.4075 25.9887 19.3973H25.9836Z" fill="white"></path><path d="M31.4266 12.5769C31.7424 12.5385 31.9222 12.5181 32.1686 12.4874C32.3201 13.3668 32.4613 14.2257 32.6179 15.0821C32.7309 15.6931 33.0262 15.9232 33.5679 15.8516C34.1302 15.7749 34.3946 15.4247 34.3073 14.806C34.1867 13.9624 34.0377 13.1239 33.894 12.242C34.143 12.1832 34.333 12.1397 34.5975 12.0784C34.772 13.1137 34.9697 14.1081 35.0878 15.1077C35.1161 15.3429 34.9287 15.6547 34.7515 15.8516C34.2611 16.4012 33.1802 16.5801 32.5332 16.235C32.3304 16.1277 32.0762 15.9334 32.0326 15.7365C31.8015 14.7089 31.632 13.671 31.4292 12.5718L31.4266 12.5769Z" fill="white"></path><path d="M18.7228 29.5973C19.6445 29.743 20.4918 29.8657 21.3391 30.0114C22.1504 30.152 22.4816 30.5227 22.4559 31.3433C22.4431 31.7395 22.3507 32.1537 22.1992 32.5192C21.9938 33.0126 21.583 33.2759 21.0181 33.189C20.1889 33.0637 19.3621 32.9385 18.5354 32.7953C18.0656 32.7135 18.1914 32.3965 18.2838 32.0182C19.1619 32.1511 20.022 32.284 20.8846 32.4067C21.5239 32.4988 21.832 32.284 21.9322 31.7037C22.0272 31.1388 21.7807 30.8295 21.1362 30.7221C20.4507 30.6071 19.7678 30.4639 19.0771 30.4C18.4173 30.3386 18.5431 30.0191 18.7254 29.5947L18.7228 29.5973Z" fill="white"></path><path d="M52.7135 33.5392C52.8188 33.3219 52.8701 32.9717 53.0344 32.9078C53.53 32.7135 53.5839 32.394 53.5145 31.944C53.4375 31.4353 53.4504 30.9164 52.7135 30.8704C52.5723 30.8601 52.4491 30.5278 52.3207 30.3463C52.3643 30.2875 52.4105 30.2287 52.4542 30.1699C53.2835 30.3386 54.1128 30.5099 54.9421 30.6786C55.3631 30.763 55.797 30.8141 56.2001 30.9471C56.367 31.0033 56.539 31.2206 56.5827 31.397C56.6186 31.5453 56.5236 31.8316 56.4004 31.898C55.2553 32.5167 54.0922 33.1046 52.9343 33.7003C52.8598 33.6491 52.7854 33.5955 52.7135 33.5443V33.5392ZM55.7328 31.6143C55.7226 31.5504 55.7123 31.4865 55.702 31.4225C55.1577 31.3459 54.6134 31.2692 53.9921 31.1797C54.0589 31.6066 54.1051 31.9134 54.1641 32.2968C54.7444 32.0437 55.2373 31.829 55.7328 31.6117V31.6143Z" fill="white"></path><path d="M30.4048 16.8588C30.1969 17.002 30.0325 17.1144 29.8913 17.2116C29.8143 17.1962 29.7681 17.1988 29.7399 17.1784C29.08 16.6799 28.4792 16.7335 27.8964 17.3854C27.8066 17.4877 27.804 17.7203 27.8425 17.8711C27.958 18.3108 27.8425 18.5792 27.3033 18.6764C27.0286 17.388 26.7436 16.1021 26.4997 14.8111C26.4766 14.6859 26.6615 14.4584 26.8052 14.3791C26.9465 14.2999 27.2237 14.2692 27.3316 14.3561C28.356 15.1639 29.3573 15.9999 30.4074 16.8614L30.4048 16.8588ZM28.6153 16.2427C28.1069 15.7979 27.6987 15.4426 27.2905 15.0847C27.2494 15.1154 27.2083 15.146 27.1673 15.1767C27.2982 15.7059 27.4291 16.235 27.5806 16.8537C27.9709 16.6236 28.2405 16.4651 28.6127 16.2427H28.6153Z" fill="white"></path><path d="M39.2523 62.8224C39.9558 63.1931 40.7748 62.5131 41.2421 63.1957C41.2292 63.28 41.2164 63.3644 41.2036 63.4462C40.2587 63.5024 39.3113 63.5587 38.3665 63.6123C38.3152 63.5612 38.2638 63.5101 38.2125 63.459C38.4256 63.096 38.595 62.6997 38.862 62.3827C39.1727 62.0095 39.6194 61.7436 39.9096 61.3602C40.0918 61.1199 40.1766 60.7364 40.1458 60.4322C40.1304 60.2737 39.7273 60.0027 39.5707 60.0436C39.3062 60.1152 39.1008 60.4015 38.8646 60.5856C38.69 60.7211 38.5026 60.8412 38.2715 61.0048C38.1226 60.2328 38.3614 59.765 38.9108 59.5426C39.5861 59.2716 40.4153 59.448 40.7594 59.9388C41.1265 60.4603 41.0726 61.2094 40.5874 61.6746C40.1817 62.0632 39.7324 62.4109 39.2523 62.8224Z" fill="white"></path><path d="M39.373 12.1116C39.8865 11.9684 40.1458 12.0426 40.2177 12.5922C40.3255 13.4128 40.5206 14.218 40.6798 15.031C40.7363 15.0412 40.7902 15.054 40.8467 15.0642C41.0495 14.5938 41.2549 14.1234 41.4552 13.6505C41.5733 13.3693 41.7171 13.0907 41.789 12.7967C41.9122 12.2931 42.1998 12.1934 42.7338 12.3979C42.1921 13.5917 41.6683 14.7779 41.1086 15.9487C41.0495 16.074 40.7646 16.1685 40.6079 16.143C40.4642 16.12 40.2716 15.9334 40.2357 15.7851C39.9353 14.581 39.6657 13.3693 39.3756 12.1116H39.373Z" fill="white"></path><path d="M54.9164 24.9856C55.0756 25.1032 55.3349 25.1927 55.3812 25.346C55.6148 26.1232 55.8048 26.9157 55.9794 27.7081C56.0076 27.8385 55.8792 28.0047 55.8253 28.1529C55.697 28.043 55.4993 27.9587 55.4505 27.8206C55.1783 27.0537 55.1886 27.0486 54.3593 27.2633C53.5711 27.4678 52.7829 27.6749 51.9279 27.8973C51.8637 27.6621 51.8098 27.4602 51.7328 27.1815C52.5801 26.9591 53.3785 26.7418 54.1822 26.5399C55.05 26.32 55.0525 26.3277 54.8446 25.4713C54.8215 25.3742 54.7958 25.277 54.7701 25.1799C54.8189 25.116 54.8677 25.0495 54.9164 24.9856Z" fill="white"></path><path d="M29.2135 62.4237C29.5036 61.5111 29.7758 60.647 30.0428 59.8085C29.6859 59.5887 29.3855 59.4021 29.0569 59.2001C29.6346 59.016 30.0556 58.8678 30.4844 58.7527C30.6282 58.7144 30.8336 58.7042 30.9363 58.7809C31.0236 58.8448 31.0621 59.0723 31.0236 59.195C30.7052 60.2252 30.3637 61.2503 30.0351 62.278C29.8605 62.8199 29.5652 62.5285 29.2135 62.4237Z" fill="white"></path><path d="M54.2489 22.0585C54.3644 22.3192 54.444 22.5007 54.5467 22.7308C53.399 23.2318 52.2873 23.7354 51.1628 24.2007C50.6621 24.4078 50.7597 23.917 50.5723 23.6894C50.7494 23.5923 50.865 23.5156 50.9908 23.4594C52.0563 22.9992 53.1218 22.5416 54.2489 22.0559V22.0585Z" fill="white"></path><path d="M33.3933 33.4113C33.8786 32.8157 34.3612 32.2916 34.7618 31.7139C35.1032 31.2205 35.4678 30.837 36.0917 30.7297C36.541 30.653 36.7952 30.3692 36.6103 29.8988C36.3818 29.3211 36.179 28.7152 35.8375 28.2065C35.2984 27.4038 35.473 26.7775 35.9428 25.9927C36.1893 25.5837 36.559 25.328 37.0853 25.5556C37.1572 25.5862 37.2548 25.6118 37.3241 25.5888C37.758 25.4482 38.1739 25.3741 38.4512 25.8598C38.7927 26.4605 39.2317 27.0434 38.8055 27.7873C38.5745 28.1912 38.3203 28.5874 38.1431 29.0143C38.0764 29.1728 38.1303 29.4617 38.2458 29.587C38.3408 29.6918 38.6592 29.7225 38.7876 29.6432C39.5219 29.1882 40.2459 28.7101 40.9365 28.1912C41.1419 28.0378 41.2677 27.7387 41.3525 27.4831C41.4449 27.1968 41.45 26.8823 41.4834 26.5781C41.5425 26.031 41.5579 25.5658 41.07 25.0903C40.3897 24.4256 40.1509 23.4772 41.0444 22.6157C41.8043 23.3494 42.4411 24.17 42.5797 25.2335C42.7158 26.2611 42.7389 27.3092 42.7466 28.3471C42.7466 28.6053 42.5617 28.9274 42.3615 29.1115C42.02 29.4259 41.6195 29.6969 41.2035 29.9116C40.4513 30.3002 40.138 30.9418 40.0199 31.7241C40.0071 31.8059 40.0097 31.8903 39.984 31.967C39.5167 33.4471 39.604 34.8812 40.097 36.3639C40.5642 37.7623 40.1637 38.9663 38.8261 39.7869C38.3614 40.0732 37.9608 40.4618 37.4884 40.8376C38.4435 41.9036 38.4255 43.1767 38.4307 44.4472C38.4333 45.1348 38.3485 45.8276 38.844 46.4335C38.9467 46.5588 38.8235 46.9192 38.7311 47.139C38.4923 47.7117 38.1816 48.2536 37.9557 48.8314C37.7298 49.4066 36.8568 49.79 36.0583 49.5855C36.066 49.4935 36.0583 49.3912 36.0892 49.3017C36.4281 48.3917 36.7901 47.4867 37.1084 46.569C37.1726 46.3824 37.1367 46.1318 37.0725 45.935C36.8799 45.3342 36.636 44.7488 36.4435 44.1455C36.2586 43.5627 36.1123 42.9696 35.8478 42.3867C35.8735 42.7574 35.835 43.146 35.9428 43.4911C36.066 43.8822 35.9505 44.1327 35.722 44.4293C35.2136 45.0939 34.7053 45.7637 34.2714 46.4769C34.0095 46.9039 33.7784 47.4049 33.7271 47.8932C33.6321 48.7879 33.2418 49.5114 32.7412 50.2169C32.4947 50.5646 32.2713 50.9353 32.0916 51.3238C31.8965 51.7482 31.6449 51.738 31.3137 51.5156C30.8156 51.1832 30.6307 50.4623 30.908 49.8718C30.985 49.7082 31.0749 49.5216 31.2135 49.4193C32.3278 48.586 32.6436 47.4126 32.7617 46.1063C32.8721 44.915 33.2855 43.8158 33.9941 42.8213C34.1969 42.5376 34.1969 42.0902 34.2354 41.7144C34.4665 39.5134 35.3163 37.591 36.7875 35.9293C36.921 35.7785 37.0032 35.4769 36.9518 35.2902C36.7978 34.7253 36.7567 34.076 36.0352 33.8305C35.8581 33.7692 35.7502 33.5033 35.55 33.2554C34.98 33.8357 34.4408 34.4364 33.8426 34.9784C33.2033 35.5587 33.0749 35.5612 32.4819 34.9196C32.0428 34.4441 31.6885 33.8868 31.3214 33.3499C30.9157 32.7569 30.4715 32.2891 29.6756 32.22C29.0671 32.1689 28.4253 30.8473 28.7308 30.3462C28.813 30.2133 29.0748 30.1391 29.2597 30.1315C29.9991 30.0957 30.4433 30.6223 30.9131 31.0671C31.5807 31.6985 32.22 32.3606 32.8773 33.0048C32.9928 33.1173 33.1289 33.2068 33.3882 33.4139L33.3933 33.4113Z" fill="white"></path><path d="M44.5413 30.1239C44.5413 31.2283 44.5233 32.2227 44.5567 33.2171C44.5644 33.4216 44.7621 33.6185 44.8725 33.8179C44.9803 33.6185 45.1754 33.4216 45.1831 33.2171C45.2191 32.3633 45.2293 31.5044 45.1857 30.648C45.16 30.1418 45.3295 29.8862 45.8301 29.8197C46.11 29.7814 46.3821 29.6919 46.775 29.5999V31.6475C47.0908 31.6961 47.3013 31.7293 47.5811 31.7753C47.5811 32.6522 47.594 33.5265 47.5657 34.3956C47.5632 34.5081 47.3347 34.7024 47.2089 34.7024C46.7698 34.7075 46.5567 34.9273 46.5311 35.321C46.4951 35.8911 46.1844 36.0061 45.6735 35.9806C44.9598 35.9422 44.2409 35.9934 43.5245 35.955C43.3243 35.9448 43.0034 35.7965 42.9597 35.6482C42.7517 34.9478 42.2382 34.843 41.6298 34.843C41.4526 34.843 41.2754 34.8123 40.9648 34.7842C41.1702 34.4979 41.3217 34.2985 41.4654 34.094C41.8429 33.5597 42.2716 33.0561 42.572 32.4809C42.798 32.0514 42.9546 31.535 42.9571 31.057C42.9571 30.4741 43.0983 30.1802 43.712 30.1904C43.9507 30.1955 44.1895 30.1546 44.5361 30.1239H44.5413Z" fill="white"></path><path d="M27.2109 41.2544C27.5241 41.1445 27.9786 40.963 28.4458 40.8326C28.9491 40.6945 28.9953 41.1317 29.0107 41.4206C29.0569 42.2539 29.0389 43.0924 29.0466 43.9284C29.0466 44.1329 29.003 44.3502 29.062 44.5368C29.1134 44.6953 29.2854 44.8129 29.4035 44.9509C29.5113 44.8103 29.7065 44.6748 29.7116 44.5291C29.7424 43.7545 29.7193 42.9799 29.7244 42.2054C29.7321 41.2544 30.1866 40.715 31.0133 40.6562C31.8785 40.5948 32.4228 41.0192 32.5512 41.9574C32.6257 42.4942 32.564 43.049 32.564 43.596C32.523 43.6139 32.4793 43.6472 32.4511 43.6395C31.3214 43.3148 31.1109 43.4733 31.098 44.6441C31.0929 45.1529 31.1083 45.6693 31.0236 46.1677C30.867 47.0727 30.2122 47.4408 29.0569 47.3488C28.1608 47.2772 27.5498 46.725 27.5318 45.8968C27.5061 44.8154 27.5524 43.7341 27.5113 42.6553C27.4959 42.2284 27.3316 41.804 27.2083 41.2569L27.2109 41.2544Z" fill="white"></path><path d="M44.6055 38.9791C43.5605 38.9791 42.5156 38.9663 41.4706 38.9842C41.047 38.9919 40.9083 38.8385 40.9006 38.4142C40.8724 36.7678 40.8596 36.7678 42.4796 36.7678C44.1587 36.7678 45.8404 36.7806 47.5196 36.7602C47.9971 36.7551 48.2153 36.865 48.2153 37.4018C48.2153 38.9842 48.2359 38.9842 46.6312 38.9842C45.956 38.9842 45.2782 38.9842 44.6029 38.9842V38.9791H44.6055Z" fill="white"></path><path d="M30.5357 38.9792C29.5113 38.9792 28.4895 38.9664 27.465 38.9843C27.0414 38.992 26.8822 38.836 26.8925 38.4117C26.9387 36.4535 26.6126 36.7986 28.4766 36.773C30.1737 36.75 31.8734 36.7833 33.573 36.7603C34.0583 36.7526 34.2021 36.9162 34.1995 37.3968C34.1944 38.9766 34.2123 38.9766 32.6231 38.9792C31.9273 38.9792 31.2315 38.9792 30.5357 38.9792Z" fill="white"></path><path d="M39.9352 43.0871C39.9352 42.2307 39.9506 41.3743 39.9275 40.518C39.9172 40.091 40.0816 39.9377 40.5026 39.9504C42.4565 40.0067 42.1047 39.6411 42.133 41.5354C42.1535 42.88 42.1201 44.2273 42.1458 45.5719C42.1561 46.0781 41.9841 46.2391 41.4757 46.2366C39.9352 46.2289 39.9352 46.2468 39.9352 44.7411C39.9352 44.1915 39.9352 43.6393 39.9352 43.0897V43.0871Z" fill="white"></path><path d="M28.8001 23.2573C29.0441 23.5334 29.234 23.7481 29.5267 24.0804C28.9901 22.2935 29.3008 21.4141 30.5024 21.1687V22.3881C30.7617 22.2245 30.9414 22.112 31.116 21.9995C31.7938 22.9275 31.9787 24.2364 31.5371 24.901C31.4138 24.6403 31.2932 24.3821 31.1725 24.1239C31.1442 24.1341 31.116 24.1469 31.0852 24.1571C31.1545 24.6275 31.27 25.0979 31.2855 25.5708C31.3163 26.647 30.8413 27.0637 29.7835 26.8745C29.5678 26.8362 29.3367 26.6087 29.2084 26.4093C28.718 25.6449 28.5742 24.4715 28.8001 23.2547V23.2573Z" fill="white"></path><path d="M37.6399 51.104C38.1919 52.3132 39.1059 52.0626 39.9172 52.0396C40.459 52.0243 40.6515 52.1854 40.6079 52.7299C40.5797 53.0673 40.477 53.2079 40.1355 53.2002C39.586 53.1875 39.0366 53.1977 38.3922 53.1977C38.3922 53.8879 38.3588 54.5142 38.4024 55.138C38.4461 55.7592 38.061 55.7106 37.6579 55.708C37.2471 55.7029 36.8055 55.7898 36.8594 55.1252C36.8979 54.6395 36.8517 54.1461 36.8697 53.6578C36.8825 53.3127 36.7387 53.1823 36.3998 53.1977C35.9916 53.2156 35.5808 53.1849 35.17 53.2053C34.7464 53.2258 34.6514 53.0034 34.6565 52.6378C34.6616 52.2927 34.7002 52.0166 35.1495 52.0575C35.2701 52.0678 35.3959 52.0575 35.5192 52.0575C36.3074 52.0754 37.1444 52.2288 37.6425 51.1091L37.6399 51.104Z" fill="white"></path><path d="M37.1675 49.9358C37.9737 49.7415 38.3023 49.2354 38.4974 48.4915C38.6566 47.8856 39.0982 47.3564 39.4243 46.7761C40.251 46.8042 41.0444 47.5405 41.1907 48.4531C41.3653 49.5498 40.7876 50.5187 39.717 50.9123C38.7876 51.2549 37.7426 50.8868 37.1675 49.9358Z" fill="white"></path><path d="M46.4207 49.8872C46.3847 49.7824 46.3436 49.7236 46.3539 49.6725C46.5927 48.4531 45.997 47.6222 45.119 46.8809C44.5438 46.3952 44.0201 45.8404 43.5014 45.2908C42.9084 44.6568 42.9161 44.1686 43.3962 43.5525C44.4642 44.575 45.5657 45.5874 46.6107 46.6534C46.9547 47.0036 47.2602 47.4612 47.3963 47.9239C47.7018 48.9643 47.481 49.3325 46.4207 49.8872Z" fill="white"></path><path d="M47.1139 46.459C46.3 45.687 45.4681 44.9175 44.6619 44.1251C44.0175 43.4885 43.2216 42.9696 43.0598 41.9598C42.9007 40.9628 43.0598 40.6356 44.0945 40.1499C44.1125 40.2522 44.1562 40.3467 44.1433 40.4311C43.9739 41.4818 44.3667 42.2666 45.1806 42.9364C45.8404 43.4783 46.4284 44.1148 47.0137 44.7412C47.6171 45.3854 47.6017 45.8762 47.1139 46.459Z" fill="white"></path><path d="M38.8826 53.9773H42.9366C42.9982 54.9615 42.151 55.8486 41.1163 55.9201C39.925 56.0019 38.957 55.2018 38.8826 53.9773Z" fill="white"></path><path d="M32.3381 53.9391C33.5884 53.9391 34.8465 53.9314 36.1046 53.9544C36.2073 53.9544 36.3921 54.1768 36.3921 54.2919C36.3818 55.1559 35.1931 55.9995 34.1327 55.9177C33.1109 55.8385 32.2508 54.931 32.3381 53.9365V53.9391Z" fill="white"></path><path d="M44.6799 21.6213C44.6774 22.2962 44.395 22.7077 43.902 22.948C43.54 23.127 43.1472 23.2522 42.7569 23.3698C42.2383 23.5258 41.6786 23.1168 41.7813 22.5901C41.8917 22.0252 42.0894 21.4474 42.3846 20.9541C42.6953 20.4351 43.2755 20.3022 43.8507 20.5067C44.3975 20.701 44.7159 21.11 44.6799 21.6213Z" fill="white"></path><path d="M44.1921 46.454C44.721 47.0598 45.2217 47.6222 45.7146 48.1949C46.128 48.678 45.9431 49.491 45.3192 49.9715C45.0248 49.7585 44.8058 49.0376 44.662 47.8089C44.0329 48.4122 44.4027 49.1816 44.2281 49.8284C42.7389 49.2583 42.608 48.1412 44.1947 46.4514L44.1921 46.454Z" fill="white"></path><path d="M45.1986 40.0452C46.092 40.5667 45.6427 41.4512 45.8353 42.2641C46.4412 41.5892 46.0946 40.8249 46.2718 40.1781C47.8225 40.8121 47.843 41.9369 46.4566 43.4273C45.8738 42.8649 45.2627 42.3331 44.721 41.7349C44.341 41.3157 44.5901 40.5283 45.1986 40.0452Z" fill="white"></path><path d="M30.659 30.1468C29.709 30.0087 29.5524 29.3901 29.4523 28.6871C29.4215 28.4672 29.175 28.2781 29.0415 28.0684C28.9439 27.9151 28.8053 27.7463 28.8078 27.5878C28.8078 27.4805 29.0235 27.2913 29.1493 27.2862C29.8246 27.2555 30.5024 27.2555 31.175 27.2862C31.306 27.2913 31.5473 27.4856 31.5345 27.5674C31.5114 27.7463 31.3676 27.9151 31.2572 28.0761C31.1365 28.2525 30.9234 28.3982 30.8824 28.5874C30.7694 29.0961 30.7283 29.6227 30.6564 30.1493L30.659 30.1468Z" fill="white"></path><path d="M29.7835 32.6213C30.3509 32.629 30.6616 32.8258 30.6205 33.4164C30.582 33.9404 30.6076 34.4722 30.5383 34.9911C30.5152 35.1624 30.2893 35.3055 30.1558 35.4615C30.0325 35.3183 29.8066 35.1803 29.7989 35.032C29.7629 34.2498 29.7809 33.4649 29.7809 32.6213H29.7835Z" fill="white"></path><path d="M39.5784 26.2663C39.4269 26.1027 39.2703 25.9289 39.0674 25.709C39.4526 25.3 39.7915 24.937 40.1329 24.574C40.7851 25.1926 40.7337 25.3511 39.5758 26.2689L39.5784 26.2663Z" fill="white"></path><path d="M21.3596 37.4786C21.4341 38.0231 21.1953 38.1765 20.6613 38.1841C20.1067 38.1918 19.986 37.9489 20.0348 37.4862C20.0554 37.3047 20.0117 37.0747 20.1093 36.952C20.2659 36.7577 20.5047 36.525 20.7229 36.5123C20.9026 36.502 21.1414 36.7526 21.28 36.9417C21.375 37.0721 21.3391 37.2945 21.3648 37.476L21.3596 37.4786Z" fill="#406442"></path><path d="M20.633 38.3119C20.3506 38.3119 20.1632 38.2506 20.04 38.1151C19.8782 37.9387 19.8808 37.6779 19.9039 37.4734C19.909 37.4223 19.909 37.3661 19.909 37.3098C19.909 37.1539 19.909 36.9928 20.004 36.8752C20.1427 36.7014 20.4199 36.4049 20.7101 36.387C20.7178 36.387 20.7229 36.387 20.728 36.387C20.9976 36.387 21.2698 36.7244 21.3776 36.8701C21.4649 36.9928 21.47 37.1488 21.4752 37.2996C21.4752 37.3558 21.4777 37.4095 21.4854 37.4632C21.524 37.747 21.4854 37.9464 21.3622 38.087C21.1927 38.2812 20.8975 38.3094 20.6587 38.3145C20.6484 38.3145 20.6407 38.3145 20.6305 38.3145L20.633 38.3119ZM20.7306 36.6426H20.7255C20.5894 36.6503 20.3917 36.8011 20.2043 37.0337C20.1658 37.0823 20.1658 37.205 20.1658 37.3098C20.1658 37.3763 20.1658 37.4402 20.1581 37.5015C20.135 37.7265 20.1581 37.8671 20.2274 37.9438C20.2993 38.023 20.4405 38.0639 20.6561 38.0563C20.9283 38.0537 21.0901 38.0077 21.1671 37.9182C21.2364 37.839 21.2569 37.6984 21.2287 37.4939C21.221 37.4325 21.2184 37.3686 21.2184 37.3047C21.2159 37.1922 21.2107 37.0772 21.1696 37.0184C20.9899 36.7704 20.8102 36.64 20.728 36.64L20.7306 36.6426Z" fill="#406442"></path><path d="M19.5393 37.4528C19.5906 37.9002 19.5367 38.1993 18.9436 38.1839C18.443 38.1712 18.3634 37.9513 18.3865 37.5423C18.4121 37.0898 18.3531 36.5504 19.0001 36.5479C19.5957 36.5453 19.5187 37.0591 19.5393 37.4554V37.4528Z" fill="#406442"></path><path d="M18.9898 38.3119C18.9744 38.3119 18.959 38.3119 18.9411 38.3119C18.6817 38.3042 18.5097 38.2454 18.3967 38.1253C18.2555 37.9719 18.2453 37.7495 18.2581 37.5347C18.2607 37.4862 18.2632 37.435 18.2632 37.3865C18.2786 36.98 18.2966 36.4227 18.9975 36.4202H19.0052C19.6471 36.4202 19.6574 36.9493 19.6625 37.2996C19.6625 37.3481 19.6625 37.3967 19.6676 37.4453C19.6959 37.6984 19.6985 37.9565 19.5393 38.1304C19.4263 38.2531 19.244 38.3144 18.9898 38.3144V38.3119ZM19.0078 36.6732H19.0027C18.5713 36.6732 18.5405 36.934 18.5226 37.3941C18.5226 37.4453 18.52 37.4964 18.5149 37.5475C18.502 37.7623 18.5251 37.8824 18.5867 37.9514C18.6458 38.0153 18.7665 38.0511 18.9488 38.0562C19.1516 38.0639 19.2851 38.0281 19.3518 37.9565C19.4237 37.8773 19.4417 37.7316 19.4135 37.4683V37.4606C19.4109 37.4095 19.4083 37.3558 19.4083 37.3047C19.4006 36.8675 19.3595 36.6758 19.0078 36.6758V36.6732Z" fill="#406442"></path><path d="M34.4511 61.603C34.9492 61.6081 35.3215 61.7794 35.3754 62.3035C35.419 62.7125 34.9954 63.0423 34.4973 63.0295C33.9736 63.0167 33.6115 62.7151 33.6347 62.2856C33.6629 61.7717 34.0044 61.6056 34.4511 61.603Z" fill="#406442"></path><path d="M34.523 63.1572C34.523 63.1572 34.505 63.1572 34.4948 63.1572C34.1687 63.1495 33.8889 63.0396 33.7091 62.8453C33.5654 62.6894 33.496 62.4951 33.5063 62.2778C33.5268 61.9148 33.7066 61.4802 34.4486 61.4751C35.0904 61.4828 35.4447 61.7563 35.4987 62.2906C35.5192 62.4874 35.4499 62.6817 35.3061 62.8376C35.1187 63.0396 34.826 63.1572 34.5179 63.1572H34.523ZM34.4511 61.7307C33.9967 61.7358 33.7862 61.9071 33.7631 62.2931C33.7553 62.4389 33.8016 62.5692 33.8966 62.6715C34.0301 62.8146 34.2432 62.8964 34.4999 62.9016C34.7464 62.9092 34.98 62.8172 35.1212 62.6638C35.188 62.5922 35.2625 62.4746 35.247 62.3161C35.206 61.9148 34.9595 61.7358 34.4486 61.7307H34.4511Z" fill="#406442"></path><path d="M34.6771 61.3398C34.315 60.9512 33.9736 60.7441 33.9094 60.4757C33.8144 60.0693 34.1584 59.8852 34.5538 59.8775C34.9569 59.8699 35.3472 59.9926 35.3112 60.445C35.2907 60.6981 34.9826 60.9282 34.6771 61.3398Z" fill="#406442"></path><path d="M34.6873 61.5417L34.5821 61.4292C34.4614 61.2988 34.3433 61.1889 34.2354 61.0917C34.0121 60.8847 33.8349 60.7236 33.7836 60.5063C33.7271 60.2712 33.8015 60.1127 33.8734 60.0232C34.0069 59.8545 34.2483 59.7573 34.5538 59.7522C34.8824 59.7445 35.1443 59.8263 35.2932 59.9848C35.4062 60.105 35.4576 60.266 35.4396 60.4603C35.4216 60.6674 35.2727 60.8412 35.0801 61.0585C34.9877 61.1633 34.8824 61.2835 34.7797 61.4215L34.6873 61.5468V61.5417ZM34.5846 60.0053C34.5846 60.0053 34.5641 60.0053 34.5564 60.0053C34.3356 60.0078 34.1559 60.0743 34.0763 60.1766C34.0223 60.2456 34.0095 60.3351 34.0352 60.445C34.0686 60.5856 34.22 60.7236 34.4126 60.9026C34.4922 60.9742 34.5769 61.056 34.6668 61.1454C34.7438 61.0483 34.8183 60.9639 34.8876 60.8872C35.0468 60.7032 35.1751 60.56 35.1854 60.4373C35.1957 60.3172 35.17 60.2251 35.1058 60.1587C35.0134 60.0615 34.8311 60.0078 34.5872 60.0078L34.5846 60.0053Z" fill="#406442"></path><path d="M44.893 62.0709C44.6004 62.0683 44.3051 61.8664 44.2691 61.4011C44.2332 60.9563 44.6722 60.6214 45.2422 60.6265C45.7044 60.6316 45.9791 60.8515 45.9919 61.3167C46.0048 61.7386 45.576 62.0658 44.8905 62.0709H44.893Z" fill="#406442"></path><path d="M44.893 62.1988C44.5747 62.1962 44.1895 61.9866 44.1433 61.4114C44.1254 61.1992 44.1972 60.9998 44.3487 60.8388C44.5541 60.6215 44.8725 60.5064 45.2448 60.4988C45.7942 60.5039 46.1049 60.7928 46.1228 61.3143C46.128 61.5111 46.0561 61.6952 45.9123 61.8434C45.6941 62.071 45.3321 62.1962 44.8956 62.1988H44.893ZM45.2294 60.7544C44.9444 60.7544 44.6851 60.8516 44.5336 61.0126C44.4335 61.12 44.3847 61.2529 44.3949 61.391C44.4258 61.7949 44.6722 61.9406 44.8905 61.9431C45.2525 61.9406 45.5554 61.8383 45.7223 61.6645C45.8199 61.5648 45.8661 61.4498 45.861 61.3219C45.8507 60.9436 45.6453 60.7595 45.2371 60.7544H45.2268H45.2294Z" fill="#406442"></path><path d="M44.4489 60.2173C44.3205 60.046 44.0329 59.8338 44.0021 59.5858C43.9431 59.1308 44.3282 58.9672 44.721 58.934C45.0959 58.9007 45.3808 59.072 45.4014 59.4708C45.4271 59.9821 45.0265 60.0869 44.4489 60.2173Z" fill="#406442"></path><path d="M44.3949 60.3605L44.3462 60.294C44.3102 60.248 44.264 60.1969 44.2126 60.1458C44.074 60.0001 43.902 59.8186 43.8737 59.6038C43.8481 59.4095 43.8891 59.2434 43.997 59.113C44.1356 58.9417 44.3821 58.8369 44.7107 58.8088C44.9546 58.7883 45.1626 58.8446 45.309 58.9724C45.4425 59.0874 45.5195 59.2587 45.5298 59.4683C45.5606 60.0998 45.0342 60.2199 44.4797 60.3452L44.3975 60.3631L44.3949 60.3605ZM44.8083 59.0568C44.7826 59.0568 44.7569 59.0568 44.7313 59.0593C44.4771 59.0823 44.2871 59.1565 44.1972 59.2689C44.1356 59.3456 44.1125 59.4428 44.1279 59.568C44.1459 59.701 44.2794 59.8416 44.4001 59.9668C44.436 60.0026 44.4694 60.0384 44.4976 60.0716C45.0727 59.9387 45.291 59.839 45.273 59.4734C45.2653 59.3354 45.2217 59.228 45.1395 59.1565C45.0599 59.0874 44.9469 59.0516 44.8083 59.0516V59.0568Z" fill="#406442"></path><path d="M50.105 18.1371C50.4259 17.8789 50.6904 17.6667 51.037 17.3906C51.286 17.746 51.5761 18.0451 51.7122 18.4004C51.7841 18.5921 51.6557 18.9628 51.4888 19.1034C51.3707 19.2031 50.9831 19.129 50.8187 19.0011C50.5569 18.7966 50.3771 18.4822 50.1076 18.1396L50.105 18.1371Z" fill="#406442"></path><path d="M51.304 19.2772C51.1011 19.2772 50.8624 19.198 50.7391 19.1008C50.544 18.9474 50.3925 18.7404 50.2333 18.5231C50.1614 18.4259 50.0895 18.3237 50.0048 18.2189L49.9252 18.1192L51.0626 17.2065L51.1422 17.319C51.2167 17.4238 51.2937 17.5235 51.3681 17.6232C51.553 17.8635 51.7302 18.091 51.8303 18.3569C51.9279 18.6126 51.7687 19.0344 51.571 19.2005C51.5068 19.2542 51.4092 19.2772 51.304 19.2772ZM50.2847 18.1601C50.3412 18.2342 50.3925 18.3032 50.4413 18.3723C50.5953 18.5844 50.7289 18.7685 50.8983 18.8989C51.0344 19.0062 51.3476 19.0497 51.4067 19.0062C51.5376 18.8938 51.6429 18.5819 51.5915 18.4464C51.5042 18.2163 51.3399 18.0041 51.1653 17.7766C51.114 17.7101 51.0626 17.6437 51.0113 17.5747L50.2821 18.1575L50.2847 18.1601Z" fill="#406442"></path><path d="M20.0605 25.8088C20.194 25.4125 20.2505 25.0342 20.443 24.7479C20.5663 24.5664 20.9309 24.39 21.1131 24.4488C21.2954 24.5076 21.4957 24.8578 21.4906 25.0776C21.4854 25.4228 21.3185 25.7679 21.203 26.1667C20.8025 26.0414 20.4661 25.9366 20.0605 25.8088Z" fill="#406442"></path><path d="M21.2929 26.3277L19.8987 25.8906L19.9398 25.7679C19.9809 25.6477 20.0143 25.5301 20.0451 25.4151C20.1221 25.1441 20.194 24.891 20.3378 24.6737C20.4841 24.4539 20.9052 24.2443 21.1542 24.3235C21.4007 24.4002 21.6266 24.8143 21.6215 25.0751C21.6189 25.3358 21.5317 25.5864 21.4418 25.8497C21.4033 25.9621 21.3648 26.0772 21.3288 26.1973L21.2929 26.3226V26.3277ZM20.2222 25.7244L21.1183 26.0056C21.144 25.9264 21.1696 25.8471 21.1953 25.7704C21.28 25.525 21.3596 25.2924 21.3622 25.0725C21.3648 24.891 21.185 24.6021 21.0746 24.5664C20.9642 24.5306 20.651 24.6635 20.5509 24.8143C20.4276 24.9958 20.366 25.2208 20.2916 25.4815C20.2685 25.5608 20.2479 25.64 20.2222 25.7218V25.7244Z" fill="#406442"></path><path d="M55.7329 31.6142C55.2373 31.8289 54.7444 32.0462 54.1641 32.2993C54.1051 31.9158 54.0563 31.609 53.9921 31.1821C54.616 31.269 55.1578 31.3457 55.7021 31.425C55.7123 31.4889 55.7226 31.5528 55.7329 31.6167V31.6142Z" fill="#406442"></path><path d="M54.0614 32.4833L53.8355 31.0312L55.8125 31.3099L55.8741 31.6908L54.0614 32.4833ZM54.1436 31.3329L54.2643 32.1152L55.5891 31.5374L54.1436 31.3329Z" fill="#406442"></path><path d="M28.6153 16.2428C28.2404 16.4626 27.9708 16.6237 27.5832 16.8537C27.4317 16.2351 27.3007 15.7059 27.1698 15.1767C27.2109 15.1461 27.252 15.1154 27.293 15.0847C27.7013 15.4426 28.1095 15.7979 28.6179 16.2428H28.6153Z" fill="#406442"></path><path d="M27.4984 17.0505L27.0234 15.123L27.2982 14.9185L28.8335 16.2606L27.4984 17.0479V17.0505ZM27.3264 15.2866L27.6653 16.6568L28.397 16.2248L27.3264 15.2891V15.2866Z" fill="#406442"></path></g><rect x="0.373941" y="0.373941" width="74.2521" height="74.7881" rx="7.10487" stroke="white" stroke-width="0.747881"></rect><defs><clipPath id="clip0_10999_81070"><rect width="45" height="56" fill="white" transform="translate(15 10)"></rect></clipPath></defs></svg>