<svg class="d-block" width="24" height="24" viewBox="0 0 24 24" fill="none" xmlns="http://www.w3.org/2000/svg"><path fill-rule="evenodd" clip-rule="evenodd" d="M15.0481 6.05311C15.0368 6.02147 15.0254 5.98993 15.0138 5.95852C16.9079 6.90523 18.2945 8.71643 18.6566 10.875H15.9103C15.8213 9.04133 15.5165 7.3646 15.0481 6.05311ZM13.6574 10.875C13.5704 9.2611 13.3004 7.84922 12.9292 6.80987C12.6998 6.16765 12.453 5.7276 12.2351 5.4696C12.1165 5.32917 12.0373 5.27607 11.9999 5.25708C11.9626 5.27607 11.8833 5.32917 11.7647 5.4696C11.5469 5.7276 11.3 6.16765 11.0706 6.80987C10.6994 7.84922 10.4295 9.2611 10.3424 10.875H13.6574ZM10.3424 13.125H13.6574C13.5704 14.7389 13.3004 16.1507 12.9292 17.1901C12.6998 17.8323 12.453 18.2723 12.2351 18.5304C12.1165 18.6708 12.0373 18.7239 11.9999 18.7429C11.9626 18.7239 11.8833 18.6708 11.7647 18.5304C11.5469 18.2723 11.3 17.8323 11.0706 17.1901C10.6994 16.1507 10.4295 14.7389 10.3424 13.125ZM8.08951 10.875C8.1785 9.04133 8.48332 7.3646 8.95172 6.05311C8.96302 6.02146 8.97444 5.98993 8.98603 5.95852C7.09198 6.90524 5.70536 8.71643 5.34322 10.875H8.08951ZM5.34322 13.125H8.08951C8.1785 14.9586 8.48332 16.6353 8.95172 17.9469C8.96302 17.9785 8.97444 18.01 8.98603 18.0414C7.09198 17.0947 5.70536 15.2835 5.34322 13.125ZM15.9103 13.125H18.6566C18.2945 15.2835 16.9079 17.0947 15.0138 18.0414C15.0254 18.01 15.0368 17.9785 15.0481 17.9469C15.5165 16.6353 15.8213 14.9586 15.9103 13.125ZM21 12C21 16.9706 16.9705 21 11.9999 21C7.02933 21 2.99988 16.9706 2.99988 12C2.99988 7.02939 7.02933 2.99994 11.9999 2.99994C16.9705 2.99994 21 7.02939 21 12Z" fill="var(--bs-dark)"></path></svg>