<svg class="" width="25" height="25" viewBox="0 0 26 26" fill="none" xmlns="http://www.w3.org/2000/svg"><rect x="0.5" y="0.329102" width="25" height="25" rx="12.5" fill="white"></rect><path d="M13 5.45076C15.4031 5.45076 15.6877 5.4599 16.6367 5.5032C17.5142 5.54325 17.9908 5.68987 18.3079 5.81308C18.728 5.97635 19.0278 6.17141 19.3428 6.48633C19.6577 6.80125 19.8528 7.1011 20.016 7.52116C20.1392 7.83833 20.2859 8.31487 20.3259 9.19233C20.3692 10.1414 20.3783 10.426 20.3783 12.8291C20.3783 15.2322 20.3692 15.5169 20.3259 16.4659C20.2859 17.3434 20.1392 17.8199 20.016 18.1371C19.8528 18.5571 19.6577 18.857 19.3428 19.1719C19.0278 19.4868 18.728 19.6819 18.3079 19.8451C17.9908 19.9684 17.5142 20.115 16.6367 20.155C15.6879 20.1983 15.4032 20.2075 13 20.2075C10.5967 20.2075 10.3121 20.1983 9.36323 20.155C8.48574 20.115 8.00919 19.9684 7.69206 19.8451C7.27196 19.6819 6.97212 19.4868 6.6572 19.1719C6.34227 18.857 6.14721 18.5571 5.98398 18.1371C5.86073 17.8199 5.71411 17.3434 5.67406 16.4659C5.63076 15.5169 5.62162 15.2322 5.62162 12.8291C5.62162 10.426 5.63076 10.1414 5.67406 9.19237C5.71411 8.31487 5.86073 7.83833 5.98398 7.52116C6.14721 7.1011 6.34227 6.80125 6.6572 6.48633C6.97212 6.17141 7.27196 5.97635 7.69206 5.81308C8.00919 5.68987 8.48574 5.54325 9.36319 5.5032C10.3122 5.4599 10.5969 5.45076 13 5.45076ZM13 3.8291C10.5557 3.8291 10.2493 3.83946 9.28931 3.88326C8.33133 3.92699 7.67712 4.07911 7.10462 4.30161C6.51279 4.53161 6.01088 4.83935 5.51055 5.33969C5.01021 5.84002 4.70247 6.34193 4.47247 6.93376C4.24997 7.50626 4.09785 8.16047 4.05412 9.11845C4.01032 10.0784 4 10.3848 4 12.8291C4 15.2734 4.01032 15.5799 4.05412 16.5398C4.09785 17.4978 4.24997 18.152 4.47247 18.7245C4.70247 19.3163 5.01021 19.8182 5.51055 20.3186C6.01088 20.8189 6.51279 21.1266 7.10462 21.3566C7.67712 21.5791 8.33133 21.7312 9.28931 21.775C10.2493 21.8188 10.5557 21.8291 13 21.8291C15.4443 21.8291 15.7507 21.8188 16.7107 21.775C17.6686 21.7312 18.3228 21.5791 18.8953 21.3566C19.4872 21.1266 19.9891 20.8189 20.4894 20.3186C20.9898 19.8182 21.2975 19.3163 21.5275 18.7245C21.75 18.152 21.9021 17.4978 21.9458 16.5398C21.9896 15.5799 22 15.2734 22 12.8291C22 10.3848 21.9896 10.0784 21.9458 9.11845C21.9021 8.16047 21.75 7.50626 21.5275 6.93376C21.2975 6.34193 20.9898 5.84002 20.4894 5.33969C19.9891 4.83935 19.4872 4.53161 18.8953 4.30161C18.3228 4.07911 17.6686 3.92699 16.7107 3.88326C15.7507 3.83946 15.4443 3.8291 13 3.8291ZM13 8.20748C10.4475 8.20748 8.37835 10.2767 8.37835 12.8291C8.37835 15.3816 10.4475 17.4508 13 17.4508C15.5524 17.4508 17.6216 15.3816 17.6216 12.8291C17.6216 10.2767 15.5524 8.20748 13 8.20748ZM13 15.8291C11.3431 15.8291 9.99996 14.486 9.99996 12.8291C9.99996 11.1723 11.3431 9.8291 13 9.8291C14.6568 9.8291 16 11.1723 16 12.8291C16 14.486 14.6568 15.8291 13 15.8291ZM18.8842 8.02489C18.8842 8.62136 18.4007 9.10491 17.8042 9.10491C17.2077 9.10491 16.7242 8.62136 16.7242 8.02489C16.7242 7.42842 17.2077 6.94491 17.8042 6.94491C18.4007 6.94491 18.8842 7.42842 18.8842 8.02489Z" fill="var(--bs-primary)"></path></svg>