<svg width="25" height="25" viewBox="0 0 34 34" fill="none" xmlns="http://www.w3.org/2000/svg"><rect width="34" height="34" rx="17" fill="white" opacity="1"></rect><path fill-rule="evenodd" clip-rule="evenodd" d="M12.5845 24.9988H9.26465V14.3113H12.5845V24.9988Z" fill="var(--bs-primary)"></path><path fill-rule="evenodd" clip-rule="evenodd" d="M10.9249 12.8528C9.86046 12.8528 9 11.988 9 10.9246C9 9.86365 9.86046 9 10.9249 9C11.9869 9 12.8462 9.86363 12.8462 10.9246C12.8462 11.9879 11.9869 12.8528 10.9249 12.8528Z" fill="var(--bs-primary)"></path><path fill-rule="evenodd" clip-rule="evenodd" d="M25 24.9999H21.6883V19.8042C21.6883 18.5634 21.6637 16.969 19.9651 16.969C18.2395 16.969 17.9769 18.3191 17.9769 19.7137V24.9999H14.6641V14.3124H17.8433V15.7741H17.8866C18.3297 14.9328 19.4118 14.0469 21.026 14.0469C24.3822 14.0469 25 16.2594 25 19.138L25 24.9999Z" fill="var(--bs-primary)"></path></svg>