<svg width="60" height="60" xmlns="http://www.w3.org/2000/svg" xmlns:xlink="http://www.w3.org/1999/xlink" viewBox="0 0 710 710"><defs><clipPath id="clip-path"><rect class="cls-1" x="0.66205" y="28.62244" width="708.6759" height="652.75512"></rect></clipPath></defs><g class="cls-2"><path fill="var(--bs-primary)" d="M22.11105,527.54244C23.47252,537.933,32.49114,545.414,47.14014,545.414c7.65393,0,17.69576-2.88819,22.47447-7.82451L82.88694,550.6917c-8.8488,9.20172-23.32679,13.62546-36.08719,13.62546-28.94285,0-46.1377-17.87584-46.1377-44.77579,0-25.5302,17.36585-43.92614,44.60254-43.92614,28.09062,0,45.62791,17.36864,42.38617,51.92721Zm45.62587-17.191c-1.36373-10.89354-9.87255-16.34028-21.79164-16.34028-11.23616,0-20.42567,5.44674-23.49384,16.34028Z"></path><path fill="var(--bs-primary)" d="M197.63144,551.36585c-9.70143,9.54094-19.91865,13.28731-32.34562,13.28731-24.34349,0-44.60457-14.64525-44.60457-44.43763,0-29.78916,20.26108-44.43334,44.60457-44.43334,11.91973,0,21.10861,3.404,30.305,12.42909l-13.10755,13.786a25.51635,25.51635,0,0,0-16.855-6.63884c-13.96147,0-24.17442,10.22045-24.17442,24.85712,0,16.00212,10.89567,24.51471,23.832,24.51471,6.63778,0,13.27875-1.8684,18.38522-6.97271Z"></path><path fill="var(--bs-primary)" d="M310.61479,520.2241c0,24.17227-16.51469,43.75278-43.75278,43.75278-27.23915,0-43.58158-19.58051-43.58158-43.75278,0-24.00747,16.68271-43.75172,43.41036-43.75172C293.41737,476.47238,310.61479,496.21663,310.61479,520.2241Zm-66.56817,0c0,12.76725,7.65435,24.6891,22.81539,24.6891,15.15034,0,22.81433-11.92185,22.81433-24.6891,0-12.60245-8.85928-24.85716-22.81433-24.85716C251.87218,495.36694,244.04662,507.62165,244.04662,520.2241Z"></path><path fill="var(--bs-primary)" d="M367.84215,454.50558V478.344h23.14926v17.86837H367.67307v36.27071c0,7.99249,4.42379,11.909,10.89354,11.909a23.66159,23.66159,0,0,0,10.03957-2.55l5.79348,17.70574a46.50911,46.50911,0,0,1-17.1985,3.56981c-18.21506.68485-30.13373-9.70145-30.13373-30.63455V496.21234H331.40771V478.344h15.65972V456.71745Z"></path><path fill="var(--bs-primary)" d="M444.38678,478.16955l1.53882,9.70145c6.46224-10.3863,15.14819-11.9219,23.65756-11.9219,8.68591,0,17.02513,3.405,21.618,8.00213l-9.359,18.045c-4.2547-3.56986-8.16585-5.44785-14.978-5.44785-10.89889,0-20.93845,5.786-20.93845,21.27983v44.26H425.14549V478.16955Z"></path><path fill="var(--bs-primary)" d="M532.10746,527.54244c1.36112,10.39058,10.3863,17.87159,25.02726,17.87159,7.66184,0,17.70145-2.88819,22.47192-7.82451l13.27873,13.10218c-8.85071,9.20172-23.32691,13.62546-36.08987,13.62546-28.94274,0-46.137-17.87584-46.137-44.77579,0-25.5302,17.3633-43.92614,44.59818-43.92614,28.09734,0,45.62971,17.36864,42.39912,51.92721Zm45.62543-17.191c-1.35688-10.89354-9.87478-16.34028-21.79132-16.34028-11.23594,0-20.42587,5.44674-23.49171,16.34028Z"></path><path fill="var(--bs-primary)" d="M643.41181,527.54244c1.3526,10.39058,10.3863,17.87159,25.01873,17.87159,7.66613,0,17.71-2.88819,22.47621-7.82451l13.283,13.10218c-8.85923,9.20172-23.32687,13.62546-36.0984,13.62546-28.93417,0-46.12944-17.87584-46.12944-44.77579,0-25.5302,17.35578-43.92614,44.59385-43.92614,28.09313,0,45.62653,17.36864,42.40022,51.92721Zm45.61694-17.191c-1.35264-10.89354-9.87482-16.34028-21.79136-16.34028-11.237,0-20.42587,5.44674-23.48742,16.34028Z"></path><path fill="var(--bs-primary)" d="M352.17068,224.95086c-.34029-8.9845-12.72443-17.89086-23.496-27.09042-4.6046-3.93472-14.34242-11.91974-16.39913-14.29641-5.34511-6.20973-6.99518-11.50882-3.60514-10.23648,3.37613,1.28625,9.47244,7.985,44.81968,32.87425-.10062-16.54146.3638-64.809.60566-75.60253.168-7.54671.57892-12.5665,4.16049-12.5665a3.05036,3.05036,0,0,1,3.11719,2.46752c.57035,2.61552,1.56874,48.82512,2.12627,58.82618,28.83358-22.27928,42.14656-42.51041,44.07061-43.972,1.93257-1.46752-.93525,8.03948-.93525,8.03948-1.71643,6.10807-13.88336,20.30069-24.05352,31.54948l-1.01121,1.12573a224.80936,224.80936,0,0,1-17.0048,16.17977c-.33816,5.725-.44409,27.59977-.4056,58.06524a110.88547,110.88547,0,1,0-12.031.10058C352.2306,236.28632,352.25522,227.00757,352.17068,224.95086Z"></path><path fill="var(--bs-primary)" d="M357.30176,250.54314c-1.7346,0-3.45744-.05244-5.17174-.13057-.27072,37.87586-1.09579,110.87849-1.89086,175.10316h14.81755c-.43551-60.65592-.83682-128.18933-.89565-175.2048C361.89033,250.45,359.60568,250.54314,357.30176,250.54314Z"></path><path fill="var(--bs-primary)" d="M537.77145,269.20444a74.00082,74.00082,0,0,0-74.24286-72.0845,111.689,111.689,0,0,1-72.20865,59.25411,72.37252,72.37252,0,0,0-1.55592,16.595,73.96108,73.96108,0,0,0,70.75759,72.00318c.153-14.47513.24611-25.20385.24611-26.97806,0-5.68539-1.6672-4.38308-11.49062-14.5115-3.69607-3.81485-6.18728-6.30175-7.64152-9.46281-2.94382-6.42589,1.91976-4.17334,1.91976-4.17334,4.5511,4.015,5.756,6.9834,17.97324,15.0123-.05887-16.52434.245-28.01176.43123-37.70249.1605-7.82344.65917-12.17978,3.924-12.17978a2.66079,2.66079,0,0,1,2.18195.977,3.26637,3.26637,0,0,1,.627,1.5987c.64635,11.40076.51152,16.79293.95561,26.87426,10.06418-4.78223,10.60991-9.14927,13.4307-8.69449,4.11877.66026-7.282,12.73729-13.0594,16.55858-.23219,4.0428-.016,24.9909.29216,52.45369A73.98,73.98,0,0,0,537.77145,269.20444Z"></path><path fill="var(--bs-primary)" d="M236.07444,157.3404a85.26163,85.26163,0,1,0-23.39539,168.6473c.44623-41.56979.67738-71.12247.32-76.83035-19.8598-9.43925-35.32689-20.46011-37.0433-26.56926,0,0-.01071-4.63884,3.969-2.06956,4.18618,2.69557,8.84858,7.50668,33.67682,18.22685.54573-10.00428.86462-14.03,1.72712-36.33919a2.54546,2.54546,0,0,1,.77368-1.74533c1.24023-.99946,1.91224-.71589,1.91224-.71589,3.5709,0,4.42268,5.01552,4.6046,12.55537.2397,10.46443.6945,59.0615.60353,75.60938,12.75013-8.98448,36.871-26.55536,41.33117-32.38521l2.19477-2.8657L268.556,255.991c1.31942,2.275-.64848,6.40448-6.00428,12.62492-2.05994,2.38309-6.02889,5.78383-10.63349,9.725-10.77152,9.18887-27.0337,23.08826-27.37612,32.05883-.06956,1.67577-.07811,6.98877-.03211,15.72177a85.24372,85.24372,0,0,0,79.9625-75.45742A122.75886,122.75886,0,0,1,236.07444,157.3404Z"></path><path fill="var(--bs-primary)" d="M460.51733,344.96576c-.25787,24.49436-.68914,59.73459-1.1589,80.55748h11.73138c-.1648-27.24345-.5072-56.54892-.78221-80.7854-1.5527.13483-3.09151.31352-4.66883.35526C463.91271,345.1359,462.21771,345.03852,460.51733,344.96576Z"></path><path fill="var(--bs-primary)" d="M212.68013,325.96952c-.306,28.73514-.71912,63.21346-1.114,99.54515h13.98929c-.59284-47.69393-.94489-81.13638-1.04548-99.41247-1.5848.08669-3.15782.22472-4.76724.22472C217.35964,326.32692,215.01506,326.16213,212.68013,325.96952Z"></path><path fill="var(--bs-primary)" d="M270.50032,625.52953a18.91979,18.91979,0,0,1,8.49973,7.06263,21.57672,21.57672,0,0,1,0,21.79985,18.80981,18.80981,0,0,1-8.49973,7.10219,31.82843,31.82843,0,0,1-13.01658,2.46337H244.5089v16.58851H233.83475V623.0662h23.649A31.82844,31.82844,0,0,1,270.50032,625.52953Zm-2.91387,26.44087q3.60836-2.95506,3.61158-8.458,0-5.49917-3.61158-8.45691-3.61636-2.95666-10.59389-2.95665H244.5089v22.82821h12.48366Q263.9701,654.92705,267.58645,651.9704Z"></path><path fill="var(--bs-primary)" d="M363.08026,680.54608l-11.74-16.83356a22.01954,22.01954,0,0,1-2.22044.08238H336.14608v16.75118H325.47193V623.0662h23.64793a31.80755,31.80755,0,0,1,13.01658,2.46333,18.92283,18.92283,0,0,1,8.50079,7.06263,19.75694,19.75694,0,0,1,2.95558,10.92024,19.487,19.487,0,0,1-3.16319,11.16748,18.76625,18.76625,0,0,1-9.07543,6.97912l13.2242,18.88708Zm-3.85662-45.49059q-3.61637-2.95666-10.59387-2.95665H336.14608v22.91063h12.48369q6.97752,0,10.59387-2.99841,3.60834-2.99676,3.61051-8.49756Q362.83415,638.01268,359.22364,635.05549Z"></path><path fill="var(--bs-primary)" d="M429.34561,677.55519a28.26475,28.26475,0,0,1-11.084-10.59387,30.51431,30.51431,0,0,1,0-30.30068,28.26962,28.26962,0,0,1,11.084-10.59285,34.80665,34.80665,0,0,1,31.695,0A28.36956,28.36956,0,0,1,472.12567,636.621a30.67251,30.67251,0,0,1,0,30.38094,28.37722,28.37722,0,0,1-11.08506,10.55321,34.81494,34.81494,0,0,1-31.695,0Zm26.19367-8.13054a18.72929,18.72929,0,0,0,7.22739-7.22523,21.86138,21.86138,0,0,0,0-20.77688,18.75082,18.75082,0,0,0-7.22739-7.22527,21.99463,21.99463,0,0,0-20.69234,0,18.722,18.722,0,0,0-7.22739,7.22527,21.8613,21.8613,0,0,0,0,20.77688,18.70051,18.70051,0,0,0,7.22739,7.22523,21.98668,21.98668,0,0,0,20.69234,0Z"></path></g></svg>








