<svg class="" width="120" height="120" viewBox="0 0 60 46" fill="none" xmlns="http://www.w3.org/2000/svg"><path fill-rule="evenodd" clip-rule="evenodd" d="M1.8006 41.9774C1.9184 42.8524 2.67567 43.4835 3.90413 43.4835C4.55201 43.4835 5.39341 43.2394 5.79729 42.8272L6.91637 43.9295C6.16752 44.6951 4.95589 45.0654 3.87889 45.0654C1.44723 45.0654 0 43.5593 0 41.2959C0 39.1502 1.46404 37.6021 3.75267 37.6021C6.11703 37.6021 7.58949 39.0661 7.32024 41.969L1.8006 41.9774V41.9774ZM5.63739 40.5302C5.5196 39.6131 4.8044 39.1587 3.80313 39.1587C2.86075 39.1587 2.08666 39.6131 1.82582 40.5302H5.63739Z" fill="white"></path><path d="M16.5677 43.9808C15.7515 44.7801 14.8933 45.0999 13.85 45.0999C11.8053 45.0999 10.0973 43.8714 10.0973 41.3641C10.0973 38.8566 11.8053 37.6282 13.85 37.6282C14.8512 37.6282 15.6253 37.9143 16.3994 38.6715L15.2972 39.8327C14.8849 39.4625 14.3632 39.2773 13.8752 39.2773C12.6972 39.2773 11.839 40.1355 11.839 41.3724C11.839 42.7187 12.7561 43.4339 13.8415 43.4339C14.3969 43.4339 14.9606 43.274 15.3897 42.8449L16.5677 43.9808Z" fill="white"></path><path fill-rule="evenodd" clip-rule="evenodd" d="M26.0749 41.3548C26.0749 43.3911 24.6865 45.0402 22.3895 45.0402C20.1009 45.0402 18.7209 43.3911 18.7209 41.3548C18.7209 39.3354 20.1261 37.6694 22.3726 37.6694C24.6276 37.6779 26.0749 39.3354 26.0749 41.3548H26.0749ZM20.4711 41.355C20.4711 42.432 21.119 43.4333 22.3895 43.4333C23.66 43.4333 24.3079 42.432 24.3079 41.355C24.3079 40.2949 23.5591 39.2599 22.3895 39.2599C21.1358 39.2683 20.4711 40.2949 20.4711 41.355Z" fill="white"></path><path d="M31.2587 35.928V37.9305H33.2107V39.4366H31.2502V42.491C31.2502 43.1641 31.6204 43.4922 32.1674 43.4922C32.4366 43.4922 32.7564 43.408 33.0088 43.2819L33.4968 44.7711C32.9919 44.9731 32.5796 45.0573 32.0495 45.0741C30.5182 45.1329 29.5169 44.2579 29.5169 42.4994V39.4451H28.1959V37.939H29.5169V36.1215L31.2587 35.928Z" fill="white"></path><path d="M37.7043 37.9221L37.8305 38.7384C38.3774 37.8633 39.101 37.7371 39.8246 37.7371C40.5567 37.7371 41.255 38.0232 41.6421 38.4102L40.8511 39.9247C40.4894 39.6218 40.1612 39.4704 39.589 39.4704C38.6719 39.4704 37.8305 39.9584 37.8305 41.2626V44.99H36.0804V37.9306L37.7043 37.9221H37.7043Z" fill="white"></path><path fill-rule="evenodd" clip-rule="evenodd" d="M45.0831 42.0789C45.2009 42.9539 45.9582 43.585 47.1867 43.585C47.8346 43.585 48.676 43.3409 49.0798 42.9287L50.1989 44.0309C49.4501 44.805 48.2384 45.1752 47.1614 45.1752C44.7298 45.1752 43.2825 43.6691 43.2825 41.4057C43.2825 39.2601 44.7466 37.7119 47.0352 37.7119C49.3996 37.7119 50.872 39.176 50.6028 42.0788H45.0831L45.0831 42.0789ZM48.92 40.6317C48.8022 39.7145 48.087 39.2602 47.0858 39.2602C46.1434 39.2602 45.3693 39.7145 45.1084 40.6317H48.92Z" fill="white"></path><path fill-rule="evenodd" clip-rule="evenodd" d="M54.4487 42.0789C54.5665 42.9539 55.3237 43.585 56.5523 43.585C57.2001 43.585 58.0416 43.3409 58.4454 42.9287L59.5645 44.0309C58.8157 44.805 57.604 45.1752 56.527 45.1752C54.0954 45.1752 52.6481 43.6691 52.6481 41.4057C52.6481 39.2601 54.1122 37.7119 56.4008 37.7119C58.7652 37.7119 60.2376 39.176 59.9684 42.0788H54.4487L54.4487 42.0789ZM58.2855 40.6317C58.1678 39.7145 57.4525 39.2602 56.4513 39.2602C55.5089 39.2602 54.7349 39.7145 54.4739 40.6317H58.2855Z" fill="white"></path><path fill-rule="evenodd" clip-rule="evenodd" d="M20.6933 9.33963C20.6933 4.19022 24.8835 0 30.033 0C35.1824 0 39.3726 4.1818 39.3726 9.33963C39.3726 14.1787 35.6723 18.1706 30.953 18.6343C30.9508 16.1297 30.9612 14.3399 30.9906 13.8673L30.9905 13.8673L31.0337 13.8292L31.0337 13.8292L31.0337 13.8291L31.0338 13.8291L31.0338 13.829C31.2937 13.5997 31.9692 13.0034 32.4209 12.5042L32.505 12.4116C33.3633 11.4693 34.3814 10.2745 34.5329 9.75279C34.5329 9.75279 34.7769 8.95345 34.6086 9.07967C34.5764 9.10504 34.5055 9.194 34.393 9.3352C33.9457 9.89639 32.8408 11.2827 30.8979 12.7818C30.8748 12.3955 30.8445 11.3668 30.8144 10.346V10.3459C30.7791 9.14381 30.744 7.95269 30.7213 7.83437C30.6708 7.61562 30.4604 7.62403 30.4604 7.62403C30.1575 7.62403 30.1239 8.04474 30.107 8.68421C30.0902 9.59292 30.0481 13.6569 30.0566 15.0453C28.3163 13.8177 27.4194 13.1158 26.9176 12.7231L26.9176 12.723C26.5629 12.4455 26.4055 12.3223 26.2871 12.277C26.001 12.1676 26.144 12.6136 26.59 13.1353C26.733 13.2987 27.295 13.7709 27.7093 14.119C27.8068 14.2009 27.8961 14.2759 27.9699 14.3385C28.0954 14.4454 28.2235 14.5518 28.3511 14.6579L28.3512 14.658L28.3513 14.6581L28.3515 14.6582L28.3516 14.6583C29.1477 15.3199 29.9255 15.9661 29.9472 16.6187C29.9539 16.7885 29.9523 17.535 29.9446 18.6788C24.8357 18.6312 20.6933 14.4595 20.6933 9.33963ZM29.9446 18.6788C29.9233 21.8427 29.8553 28.0467 29.7873 33.4973H31.0326C30.9914 28.3429 30.9564 22.5948 30.953 18.6343C30.6503 18.664 30.3434 18.6793 30.033 18.6793C30.0035 18.6793 29.974 18.6791 29.9446 18.6788ZM38.9409 14.1695C37.7545 16.6096 35.55 18.4607 32.8659 19.1591C32.7734 19.6134 32.7229 20.0762 32.7313 20.5558C32.8119 23.8543 35.4434 26.488 38.6921 26.6195C38.6697 28.6798 38.6327 31.6387 38.5958 33.3871H39.5802C39.5662 31.3488 39.5419 29.1731 39.5208 27.2824L39.5208 27.282L39.5132 26.6003C42.7648 26.3162 45.2731 23.5444 45.1841 20.2361C45.0999 16.8452 42.3149 14.1611 38.9409 14.1695ZM39.5132 26.6003C39.4876 24.2858 39.4698 22.5197 39.4876 22.1796C39.9757 21.8514 40.9349 20.8417 40.5899 20.7829C40.4852 20.7679 40.4187 20.831 40.3027 20.9412C40.1575 21.079 39.9347 21.2904 39.4624 21.5149C39.4427 21.1168 39.434 20.8056 39.4253 20.4885V20.4884C39.4153 20.1286 39.4051 19.7614 39.3783 19.2515C39.3783 19.2515 39.3698 19.1674 39.3278 19.1168C39.2436 19.0243 39.1427 19.0327 39.1427 19.0327C38.8734 19.0327 38.8313 19.4029 38.8145 20.0592L38.8088 20.3317V20.3318C38.7926 21.0913 38.7734 21.9943 38.7809 23.2313C38.0312 22.7397 37.7707 22.4725 37.5372 22.2331L37.5372 22.2331C37.451 22.1446 37.3684 22.06 37.2663 21.9692C37.2663 21.9692 36.8625 21.7841 37.1064 22.3226C37.2201 22.5822 37.4196 22.787 37.7127 23.0879L37.7459 23.122C38.0183 23.4027 38.2163 23.5787 38.3594 23.7059C38.6494 23.9638 38.7135 24.0208 38.7135 24.342C38.7135 24.4923 38.7054 25.398 38.6921 26.6195C38.8328 26.6252 38.9747 26.6262 39.1176 26.6224C39.2506 26.6191 39.3825 26.6117 39.5132 26.6003ZM18.4354 10.6941C18.9067 10.6941 19.361 10.7446 19.807 10.8288V10.8288C20.295 14.2954 22.5079 17.2151 25.5622 18.6791C25.1728 22.1352 22.3428 24.8481 18.8295 25.0379C18.8249 24.2935 18.825 23.8452 18.8305 23.7028C18.8557 22.9456 20.2272 21.776 21.1359 21.002C21.523 20.6738 21.8595 20.3877 22.0278 20.1858C22.4822 19.6641 22.6421 19.3107 22.5327 19.1256L22.3812 18.8648L22.1961 19.1088C21.8175 19.5968 19.7897 21.0777 18.7211 21.8349C18.7295 20.4466 18.6874 16.3574 18.6706 15.4738C18.6538 14.8428 18.5865 14.4137 18.2836 14.4137C18.2836 14.4137 18.2247 14.3884 18.1237 14.4726C18.0564 14.5231 18.0564 14.6156 18.0564 14.6156C17.999 16.0378 17.9706 16.5754 17.9419 17.1187C17.9327 17.2922 17.9235 17.4663 17.9133 17.67C16.1835 16.9236 15.6159 16.5184 15.271 16.2722C15.1999 16.2215 15.1382 16.1774 15.0778 16.1386C14.7412 15.9198 14.7412 16.3153 14.7412 16.3153C14.8843 16.8285 16.1885 17.7541 17.8544 18.5534C17.8843 19.0362 17.8641 21.5235 17.827 25.0231C14.1486 24.7141 11.2582 21.6295 11.2582 17.8713C11.2582 13.9083 14.4724 10.6941 18.4354 10.6941ZM17.827 25.0231C17.8173 25.9379 17.8064 26.9219 17.795 27.9574C17.7762 29.6576 17.7559 31.4966 17.7367 33.3958H18.9146C18.8692 29.3949 18.8391 26.5805 18.8295 25.0379C18.6991 25.045 18.5677 25.0485 18.4354 25.0485C18.2305 25.0485 18.0276 25.04 17.827 25.0231Z" fill="white"></path></svg>