<svg width="25" height="25" viewBox="0 0 34 34" fill="none" xmlns="http://www.w3.org/2000/svg"><rect width="34" height="34" rx="17" fill="white" opacity="1"></rect><path d="M27 11.8295C26.2641 12.1398 25.4733 12.3495 24.6433 12.4438C25.4905 11.9609 26.1411 11.1964 26.4475 10.2853C25.6547 10.7324 24.7765 11.0571 23.8419 11.2321C23.0933 10.4738 22.027 10 20.8468 10C18.5807 10 16.7434 11.7468 16.7434 13.9014C16.7434 14.2072 16.7798 14.505 16.8497 14.7905C13.4395 14.6278 10.4161 13.0746 8.3923 10.7142C8.0391 11.2904 7.83675 11.9606 7.83675 12.6756C7.83675 14.0292 8.56121 15.2233 9.6622 15.923C8.98954 15.9027 8.35689 15.7272 7.80361 15.435C7.80332 15.4513 7.80332 15.4676 7.80332 15.4841C7.80332 17.3744 9.21771 18.9513 11.0948 19.3097C10.7505 19.3989 10.388 19.4465 10.0137 19.4465C9.74933 19.4465 9.49226 19.4221 9.24178 19.3765C9.76389 20.9266 11.2792 22.0546 13.0748 22.0861C11.6705 23.1324 9.9012 23.7562 7.97882 23.7562C7.64765 23.7562 7.32101 23.7378 7 23.7017C8.81587 24.8087 10.9727 25.4545 13.2899 25.4545C20.8372 25.4545 24.9644 19.5095 24.9644 14.3539C24.9644 14.1847 24.9604 14.0164 24.9525 13.8491C25.7542 13.2991 26.4499 12.6119 27 11.8295Z" fill="var(--bs-primary)"></path></svg>