<svg width="25" height="25" viewBox="0 0 26 26" fill="none" xmlns="http://www.w3.org/2000/svg"><rect x="0.5" y="0.329102" width="25" height="25" rx="12.5" fill="white"></rect><path fill-rule="evenodd" clip-rule="evenodd" d="M20.0613 14.2554C20.0613 15.913 18.7174 17.2569 17.0597 17.2569H9.38437C7.72671 17.2569 6.38281 15.913 6.38281 14.2554V10.6836C6.38281 9.02593 7.72673 7.68204 9.38437 7.68204H17.0597C18.7174 7.68204 20.0613 9.02593 20.0613 10.6836V14.2554Z" fill="var(--bs-primary)"></path><path d="M15.0272 12.3379L12.0671 10.6485C11.9458 10.576 11.5303 10.6678 11.5303 10.8145V14.1086C11.5303 14.2529 11.9427 14.3455 12.0633 14.2762L15.1554 12.6715C15.2814 12.6005 15.1509 12.412 15.0272 12.3379Z" fill="white"></path></svg>